<svg xmlns="http://www.w3.org/2000/svg" width="72" height="24" viewBox="0 0 72 24">
  <g fill="#FFF" transform="translate(0 .036)">
    <path d="M3.51237318,0 L0,8.47368421 L2.28673616,8.47368421 L2.93481266,6.77686768 L6.70238688,6.77686768 L7.3471057,8.47368421 L9.68421053,8.47368421 L6.17519483,0 L3.51237318,0 Z M4.81188373,1.97208241 L5.96028925,4.93718287 L3.66012081,4.93718287 L4.81188373,1.97208241 L4.81188373,1.97208241 Z"/>
    <polygon points="10.088 8.474 10.088 0 13.427 .013 15.37 5.476 17.266 0 20.579 0 20.579 8.474 18.481 8.474 18.481 2.23 16.257 8.474 14.416 8.474 12.186 2.23 12.186 8.474"/>
    <polygon points="21.789 8.474 21.789 0 28.649 0 28.649 1.895 23.914 1.895 23.914 3.345 28.538 3.345 28.538 5.129 23.914 5.129 23.914 6.634 28.649 6.634 28.649 8.474"/>
    <path d="M29.8596491,0 L29.8596491,8.47368421 L31.9601058,8.47368421 L31.9601058,5.46329744 L32.8445082,5.46329744 L35.3629835,8.47368421 L37.9298246,8.47368421 L35.1660656,5.35180512 C36.3003293,5.25527093 37.4703492,4.27342451 37.4703492,2.74907459 C37.4703492,0.965912751 36.0826375,0 34.5338559,0 L29.8596491,0 L29.8596491,0 Z M31.9601058,1.89542737 L34.3611209,1.89542737 C34.9370913,1.89542737 35.3560744,2.34982237 35.3560744,2.78739489 C35.3560744,3.3503484 34.8132114,3.67936241 34.3922136,3.67936241 L31.9601058,3.67936241 L31.9601058,1.89542737 L31.9601058,1.89542737 Z"/>
    <polygon points="40.351 8.474 38.333 8.474 38.333 0 40.351 0"/>
    <path d="M45.5999252 8.47368421L45.1397535 8.47368421C42.9132353 8.47368421 41.5614035 6.69394186 41.5614035 4.27168659 41.5614035 1.78959159 42.8980999 0 45.709817 0L48.0175439 0 48.0175439 2.00692521 45.6254454 2.00692521C44.4840437 2.00692521 43.6768192 2.91067781 43.6768192 4.29259183 43.6768192 5.93362106 44.5998454 6.62285102 45.9296006 6.62285102L46.4790588 6.62285102 45.5999252 8.47368421zM49.9158815 0L46.4035088 8.47368421 48.690245 8.47368421 49.3383212 6.77686768 53.1058961 6.77686768 53.7506143 8.47368421 56.0877193 8.47368421 52.578704 0 49.9158815 0zM51.2153928 1.97208241L52.3637977 4.93718287 50.0636298 4.93718287 51.2153928 1.97208241z"/>
    <polygon points="56.491 8.474 56.491 0 59.126 0 62.489 5.324 62.489 0 64.561 0 64.561 8.474 62.012 8.474 58.563 3.01 58.563 8.474"/>
    <polygon points="15.333 23 15.333 14.526 22.193 14.526 22.193 16.422 17.458 16.422 17.458 17.871 22.082 17.871 22.082 19.655 17.458 19.655 17.458 21.16 22.193 21.16 22.193 23"/>
    <polygon points="48.421 23 48.421 14.526 55.281 14.526 55.281 16.422 50.545 16.422 50.545 17.871 55.148 17.871 55.148 19.655 50.545 19.655 50.545 21.16 55.281 21.16 55.281 23"/>
    <polygon points="22.273 23 25.615 18.815 22.193 14.526 24.844 14.526 26.882 17.178 28.927 14.526 31.474 14.526 28.096 18.763 31.445 23 28.795 23 26.816 20.39 24.885 23"/>
    <path d="M31.4736842 14.5263158L31.4736842 23 33.6325289 23 33.6325289 20.3240974 35.8467289 20.3240974C37.7202553 20.3240974 39.1403509 19.3231017 39.1403509 17.3764265 39.1403509 15.7638091 38.0265625 14.5263158 36.1200444 14.5263158L31.4736842 14.5263158 31.4736842 14.5263158zM33.6325289 16.4426484L35.964358 16.4426484C36.5696207 16.4426484 37.0022641 16.8162478 37.0022641 17.418237 37.0022641 17.9837702 36.5718048 18.3938256 35.9574389 18.3938256L33.6325289 18.3938256 33.6325289 16.4426484zM39.9473684 14.5263158L39.9473684 23 42.0478251 23 42.0478251 19.9896086 42.9322275 19.9896086 45.4507028 23 48.0175439 23 45.2537849 19.8781163C46.3880478 19.7815678 47.5580685 18.7997367 47.5580685 17.2753808 47.5580685 15.4922277 46.1703568 14.5263158 44.6215752 14.5263158L39.9473684 14.5263158 39.9473684 14.5263158zM42.0478251 16.4217488L44.4488402 16.4217488C45.0248106 16.4217488 45.443793 16.8761362 45.443793 17.3137083 45.443793 17.8766686 44.90093 18.2056751 44.4799322 18.2056751L42.0478251 18.2056751 42.0478251 16.4217488 42.0478251 16.4217488zM56.3465905 23L56.3465905 21.1603168 60.4268359 21.1603168C61.0305657 21.1603168 61.2919766 20.8213237 61.2919766 20.4495312 61.2919766 20.093311 61.0313898 19.7331743 60.4268359 19.7331743L58.5830197 19.7331743C56.980308 19.7331743 56.0877193 18.7185581 56.0877193 17.1952501 56.0877193 15.8365681 56.9051139 14.5263158 59.2867279 14.5263158L63.256986 14.5263158 62.3985515 16.4328915 58.964815 16.4328915C58.3084355 16.4328915 58.1063805 16.7907737 58.1063805 17.1325343 58.1063805 17.4838118 58.3560717 17.8711911 58.8575107 17.8711911L60.7889876 17.8711911C62.5756163 17.8711911 63.3508772 18.9242143 63.3508772 20.3031945 63.3508772 21.7857326 62.486982 23 60.6917262 23L56.3465905 23zM64.0132578 23L64.0132578 21.1603168 68.0935005 21.1603168C68.6972337 21.1603168 68.9586461 20.8213237 68.9586461 20.4495312 68.9586461 20.093311 68.6980544 19.7331743 68.0935005 19.7331743L66.2496871 19.7331743C64.6469753 19.7331743 63.754386 18.7185581 63.754386 17.1952501 63.754386 15.8365681 64.5717806 14.5263158 66.9533946 14.5263158L70.9236513 14.5263158 70.0652168 16.4328915 66.6314816 16.4328915C65.9751029 16.4328915 65.7730478 16.7907737 65.7730478 17.1325343 65.7730478 17.4838118 66.0227384 17.8711911 66.5241773 17.8711911L68.4556556 17.8711911C70.2422851 17.8711911 71.0175439 18.9242143 71.0175439 20.3031945 71.0175439 21.7857326 70.1536501 23 68.3583901 23L64.0132578 23z"/>
  </g>
</svg>
