<svg xmlns="http://www.w3.org/2000/svg" width="88" height="24" viewBox="0 0 88 24">
  <g fill="none" transform="translate(0 .036)">
    <path fill="#FFF" d="M16.7372527,22.6344241 C22.9235109,22.6638901 28.5699591,17.5891375 28.5699591,11.4154988 C28.5699591,4.66428148 22.9235109,-0.00224546576 16.7372527,-8.10010604e-07 L11.4132534,-8.10010604e-07 C5.15289483,-0.00224546576 2.55279902e-15,4.66567367 2.55279902e-15,11.4154988 C2.55279902e-15,17.5904848 5.15289483,22.663935 11.4132534,22.6344241 L16.7372527,22.6344241 Z"/>
    <path fill="#21201F" d="M11.4384475,0.935461037 C5.71789893,0.937257409 1.08235941,5.57414421 1.08101213,11.2969832 C1.08235941,17.0188341 5.71785402,21.6552718 11.4384475,21.6570682 C17.1603434,21.6552718 21.796826,17.0188341 21.7976343,11.2969832 C21.7967811,5.57414421 17.1603434,0.937257409 11.4384475,0.935461037 Z M4.87315471,11.2969832 L4.87315471,11.2969832 C4.87854383,8.5004801 6.6250671,6.11579546 9.08789394,5.168164 L9.08789394,17.4243652 C6.6250671,16.4772727 4.87849892,14.0938904 4.87315471,11.2969832 Z M13.7881029,17.4270598 L13.7881029,17.4270598 L13.7881029,5.16775982 C16.2518279,6.1131009 18.0010457,8.49913282 18.0055367,11.2969832 C18.0010457,14.0956868 16.2518279,16.4799223 13.7881029,17.4270598 Z"/>
    <path fill="#FFF" d="M32.1978683 4.86956196C32.1978683 3.79887898 31.6396006 3.8693866 31.1042367 3.85775509L31.1042367 3.54832991C31.5681948 3.57123366 32.0437844 3.57123366 32.5086408 3.57123366 33.0084814 3.57123366 33.6870612 3.54832991 34.5681371 3.54832991 37.6498143 3.54832991 39.3280754 5.60697292 39.3280754 7.71497127 39.3280754 8.89384079 38.6383132 11.8574065 34.4248763 11.8574065 33.8181515 11.8574065 33.2581323 11.8340088 32.6990113 11.8340088 32.1636923 11.8340088 31.6396006 11.8457301 31.1042367 11.8574065L31.1042367 11.5484304C31.8178906 11.4765306 32.1636923 11.4527736 32.1978234 10.6430586L32.1978234 4.86956196 32.1978683 4.86956196zM33.3646123 10.4530922L33.3646123 10.4530922C33.3646123 11.3696913 34.0198392 11.4765755 34.6027621 11.4765755 37.1742695 11.4765755 38.0185647 9.536044 38.0185647 7.76212605 38.0185647 5.53686948 36.5899993 3.93001418 34.2933819 3.93001418 33.8047685 3.93001418 33.5802219 3.96504344 33.3646123 3.97766296L33.3646123 10.4530922 33.3646123 10.4530922zM39.745732 11.5484753L39.9711768 11.5484753C40.3039548 11.5484753 40.5424682 11.5484753 40.5424682 11.1545757L40.5424682 7.92923361C40.5424682 7.406085 40.3641333 7.333287 39.9236178 7.09661491L39.9236178 6.90575032C40.4827388 6.73778948 41.1501361 6.5132429 41.1967969 6.47731545 41.2807773 6.42971157 41.351734 6.41713697 41.4114634 6.41713697 41.4703395 6.41713697 41.4949947 6.48899187 41.4949947 6.58464871L41.4949947 11.1545757C41.4949947 11.5484753 41.7568161 11.5484753 42.0900432 11.5484753L42.2921351 11.5484753 42.2921351 11.8579005C41.8870082 11.8579005 41.4702946 11.8341435 41.0427579 11.8341435 40.6143231 11.8341435 40.1854391 11.8458199 39.7457769 11.8579005L39.7457769 11.5484753 39.745732 11.5484753zM41.0189111 4.5843429L41.0189111 4.5843429C40.7090817 4.5843429 40.4360331 4.29876457 40.4360331 3.98929447 40.4360331 3.69109662 40.7216563 3.4167007 41.0189111 3.4167007 41.3274381 3.4167007 41.6022831 3.66778869 41.6022831 3.98929447 41.6022831 4.31084517 41.3396085 4.5843429 41.0189111 4.5843429zM43.4228618 8.00019033C43.4228618 7.56007904 43.2912326 7.44151845 42.7330547 7.2151755L42.7330547 6.98932655C43.2445718 6.82271299 43.7318828 6.66777585 44.3034886 6.41713697 44.3390119 6.41713697 44.3739962 6.44143291 44.3739962 6.53619156L44.3739962 7.31038325C45.0535191 6.82271299 45.6368911 6.41713697 46.4353338 6.41713697 47.4457934 6.41713697 47.8027775 7.1554012 47.8027775 8.08367675L47.8027775 11.1546206C47.8027775 11.5484753 48.0645988 11.5484753 48.398275 11.5484753L48.6125374 11.5484753 48.6125374 11.8579005C48.1948359 11.8579005 47.7785714 11.8341435 47.3510347 11.8341435 46.9221059 11.8341435 46.493177 11.8458199 46.0652361 11.8579005L46.0652361 11.5484753 46.2790045 11.5484753C46.6130849 11.5484753 46.8498468 11.5484753 46.8498468 11.1546206L46.8498468 8.07244942C46.8498468 7.39297148 46.4353338 7.06019345 45.7558109 7.06019345 45.3754739 7.06019345 44.7682551 7.36966354 44.3739513 7.63188903L44.3739513 11.1545308C44.3739513 11.5484304 44.637075 11.5484304 44.970841 11.5484304L45.1846094 11.5484304 45.1846094 11.8579005C44.7682551 11.8579005 44.3510476 11.8340537 43.9226576 11.8340537 43.4946269 11.8340537 43.0653388 11.845775 42.6373081 11.8579005L42.6373081 11.5484304 42.8519746 11.5484304C43.1852017 11.5484304 43.422772 11.5484304 43.422772 11.1545308L43.422772 8.00019033 43.4228618 8.00019033zM49.5174601 8.5722901C49.4927151 8.67966827 49.4927151 8.85791334 49.5174601 9.26299536 49.5875635 10.3933628 50.3154986 11.3216833 51.2661839 11.3216833 51.9214108 11.3216833 52.4342752 10.9646542 52.8739823 10.5245429L53.0401019 10.6916056C52.4922531 11.4173401 51.8140327 12.0361456 50.8386472 12.0361456 48.9457196 12.0361456 48.5648437 10.2024982 48.5648437 9.44133026 48.5648437 7.10779733 50.1357715 6.41709206 50.9683903 6.41709206 51.9330423 6.41709206 52.9691452 7.02386182 52.9803725 8.28576866 52.9803725 8.35807266 52.9803725 8.42858029 52.9691452 8.50088428L52.8613628 8.5722901 49.5174601 8.5722901 49.5174601 8.5722901zM51.6246052 8.19105492L51.6246052 8.19105492C51.9214108 8.19105492 51.9565299 8.03611778 51.9565299 7.89375525 51.9565299 7.2865364 51.5877795 6.79837214 50.9208762 6.79837214 50.1955908 6.79837214 49.6957052 7.33324209 49.5528935 8.19105492L51.6246052 8.19105492 51.6246052 8.19105492zM53.2544091 11.5484753L53.5759598 11.5484753C53.9081989 11.5484753 54.1462632 11.5484753 54.1462632 11.1545757L54.1462632 7.81017902C54.1462632 7.44147354 53.7066459 7.36961863 53.5274578 7.27441089L53.5274578 7.09657C54.396453 6.72696633 54.8728959 6.41709206 54.9811274 6.41709206 55.051635 6.41709206 55.0866643 6.45301951 55.0866643 6.57247829L55.0866643 7.64356546 55.1118584 7.64356546C55.4086641 7.17965223 55.9094478 6.41709206 56.6347333 6.41709206 56.9324371 6.41709206 57.3128639 6.61918398 57.3128639 7.04806794 57.3128639 7.36961863 57.0874192 7.65614006 56.754237 7.65614006 56.3837351 7.65614006 56.3837351 7.36961863 55.9678749 7.36961863 55.7653339 7.36961863 55.0993287 7.64356546 55.0993287 8.35807266L55.0993287 11.1545757C55.0993287 11.5484304 55.3368541 11.5484304 55.6705303 11.5484304L56.3365354 11.5484304 56.3365354 11.8579005C55.6817576 11.8457301 55.1837133 11.8340986 54.6708489 11.8340986 54.1831787 11.8340986 53.682844 11.845775 53.254454 11.8579005L53.254454 11.5484753 53.2544091 11.5484753zM57.8369107 10.2024982C57.9918928 10.9884113 58.4674824 11.6553595 59.3368819 11.6553595 60.0374672 11.6553595 60.2996927 11.2269246 60.2996927 10.8101662 60.2996927 9.4054028 57.7057306 9.85763961 57.7057306 7.94135913 57.7057306 7.27445579 58.241903 6.41713697 59.5506053 6.41713697 59.9310321 6.41713697 60.4424594 6.52491932 60.9063726 6.76338779L60.990847 7.9764333 60.716496 7.9764333C60.5978905 7.22730101 60.1816261 6.79846196 59.419021 6.79846196 58.9429823 6.79846196 58.4911946 7.07245369 58.4911946 7.58392589 58.4911946 8.97791103 61.2522193 8.54812888 61.2522193 10.4168055 61.2522193 11.2022694 60.6211985 12.0362354 59.2048036 12.0362354 58.7287648 12.0362354 58.169599 11.8696218 57.7533345 11.6320516L57.6221993 10.2628115 57.8369107 10.2024982 57.8369107 10.2024982zM71.9995573 5.70303394L71.7026618 5.70303394C71.4763638 4.31084517 70.4883589 3.75082601 69.1558995 3.75082601 67.7861654 3.75082601 65.7984791 4.66693113 65.7984791 7.52365758 65.7984791 9.9298987 67.5135209 11.6552697 69.3458659 11.6552697 70.5237923 11.6552697 71.5005699 10.8460038 71.7385893 9.59577339L72.0116379 9.66673011 71.7385893 11.4046757C71.2387037 11.7149991 69.8937146 12.0361456 69.1073525 12.0361456 66.322975 12.0361456 64.5620358 10.2384706 64.5620358 7.56003413 64.5620358 5.11966194 66.7396885 3.36909683 69.0722783 3.36909683 70.0360771 3.36909683 70.9643527 3.67986929 71.8809518 4.00141999L71.9995573 5.70303394 71.9995573 5.70303394zM72.4289353 11.5484753L72.65438 11.5484753C72.9880563 11.5484753 73.2269738 11.5484753 73.2269738 11.1545757L73.2269738 4.52510751C73.2269738 3.75087092 73.0482347 3.72702407 72.5955039 3.59633797L72.5955039 3.40592247C73.0715427 3.25147933 73.5713833 3.0367679 73.8215731 2.89355209 73.9513162 2.82259537 74.0474221 2.76237198 74.0824514 2.76237198 74.1552494 2.76237198 74.1790064 2.8342718 74.1790064 2.92988373L74.1790064 11.1545757C74.1790064 11.5484753 74.4403786 11.5484753 74.7740548 11.5484753L74.9748444 11.5484753 74.9748444 11.8579005C74.5719629 11.8579005 74.1552494 11.8340986 73.7263205 11.8340986 73.2983796 11.8340986 72.8698998 11.8458199 72.4288455 11.8579005L72.4288455 11.5484753 72.4289353 11.5484753zM80.0709738 11.2022245C80.0709738 11.4173401 80.2012108 11.4290165 80.4033027 11.4290165 80.5465186 11.4290165 80.7244044 11.4173401 80.8797457 11.4173401L80.8797457 11.6679341C80.3674202 11.7150889 79.3914959 11.9652338 79.165108 12.0361905L79.1053786 12.0002181 79.1053786 11.0369582C78.3922636 11.6198362 77.843876 12.0361905 76.9982336 12.0361905 76.3556262 12.0361905 75.6892168 11.6198362 75.6892168 10.620604L75.6892168 7.57215965C75.6892168 7.26273446 75.6420171 6.96494079 74.9764611 6.90570541L74.9764611 6.67936246C75.40539 6.66768604 76.3556711 6.59619041 76.5110124 6.59619041 76.6430907 6.59619041 76.6430907 6.67936246 76.6430907 6.94118377L76.6430907 10.0115887C76.6430907 10.3695609 76.6430907 11.3929993 77.6777564 11.3929993 78.0823893 11.3929993 78.6177084 11.0835741 79.1171449 10.6681629L79.1171449 7.46433238C79.1171449 7.22721119 78.5463026 7.09652509 78.1188108 6.9770214L78.1188108 6.76280397C79.1885507 6.69094906 79.8563073 6.59619041 79.9744637 6.59619041 80.0709289 6.59619041 80.0709289 6.67927264 80.0709289 6.81085693L80.0709289 11.2022245 80.0709738 11.2022245zM82.4392216 7.27445579C82.9148113 6.86977795 83.5573738 6.41713697 84.2126007 6.41713697 85.5935621 6.41713697 86.4257767 7.62070662 86.4257767 8.91719364 86.4257767 10.47649 85.2837328 12.0361456 83.5806817 12.0361456 82.7004591 12.0361456 82.2365459 11.7500732 81.9266716 11.6197913L81.5701366 11.89284 81.3209348 11.7626479C81.4264717 11.0602662 81.4870543 10.3695609 81.4870543 9.64382636L81.4870543 4.52506261C81.4870543 3.75087092 81.3074171 3.72702407 80.8555845 3.59633797L80.8555845 3.40592247C81.3330154 3.25147933 81.8314639 3.0367679 82.0816537 2.89350718 82.2127889 2.82255046 82.3075026 2.76237198 82.3443732 2.76237198 82.4153299 2.76237198 82.4390869 2.8342718 82.4390869 2.92988373L82.4390869 7.27441089 82.4392216 7.27441089 82.4392216 7.27445579zM82.4392216 10.5119683L82.4392216 10.5119683C82.4392216 10.9646542 82.8671625 11.7272144 83.664752 11.7272144 84.9383352 11.7272144 85.4736543 10.47649 85.4736543 9.41667504 85.4736543 8.13137044 84.4987179 7.06028327 83.5699933 7.06028327 83.1285347 7.06028327 82.7602334 7.34635561 82.4391767 7.62070662L82.4391767 10.5119683 82.4392216 10.5119683zM31.090674 18.7788302L31.18184 18.7788302C31.4144702 18.7788302 31.6605733 18.7474386 31.6605733 18.4101247L31.6605733 15.0167768C31.6605733 14.6790139 31.4144702 14.6471732 31.18184 14.6471732L31.090674 14.6471732 31.090674 14.4527158C31.3435135 14.4527158 31.7319791 14.4783141 32.0503861 14.4783141 32.3737332 14.4783141 32.7617497 14.4527158 33.0662348 14.4527158L33.0662348 14.6471732 32.9750689 14.6471732C32.7428878 14.6471732 32.4963805 14.6790588 32.4963805 15.0167768L32.4963805 18.4101247C32.4963805 18.7474386 32.7428878 18.7788302 32.9750689 18.7788302L33.0662348 18.7788302 33.0662348 18.9742306C32.7554624 18.9742306 32.3660986 18.9486323 32.0432006 18.9486323 31.7257367 18.9486323 31.3435135 18.9742306 31.090674 18.9742306L31.090674 18.7788302 31.090674 18.7788302z"/>
    <path fill="#FFF" d="M33.0664145 19.0016253C32.7533965 19.0016253 32.365425 18.9755779 32.0429312 18.9755779 31.7263205 18.9755779 31.3455344 19.0016253 31.0908537 19.0016253L31.0630548 19.0016253 31.0630548 18.9737815 31.0630548 18.7793242 31.0630548 18.7510313 31.0908537 18.7510313 31.1816154 18.7510313C31.4164462 18.7456422 31.6302595 18.7267803 31.6325049 18.4101696L31.6325049 15.0167768C31.6302595 14.7001662 31.4164911 14.6790139 31.1816154 14.6745679L31.0630548 14.6745679 31.0630548 14.6472181 31.0630548 14.4239739 31.0908537 14.4239739C31.3455344 14.4239739 31.7335509 14.4495722 32.0501167 14.4495722 32.3725655 14.4495722 32.7601778 14.4239739 33.0664145 14.4239739L33.0952013 14.4239739 33.0952013 14.453614 33.0952013 14.6745679 33.0664145 14.6745679 32.9756976 14.6745679C32.7408219 14.6790588 32.5256614 14.7001662 32.524359 15.0167768L32.524359 18.4101696C32.5256614 18.7267803 32.740777 18.7456422 32.9756976 18.7510313L33.0951564 18.7510313 33.0951564 18.7793242 33.0951564 19.0016253 33.0664145 19.0016253 33.0664145 19.0016253zM33.0385707 18.9463419L33.0385707 18.9463419 33.0385707 18.8080212 32.9757426 18.8080212C32.7444596 18.8080212 32.4691655 18.7680519 32.4677733 18.4101696L32.4677733 15.0167768C32.4691206 14.6588496 32.7444147 14.6184312 32.9757426 14.6184312L33.0385707 14.6184312 33.0385707 14.4810087C32.7394746 14.4810087 32.3644819 14.5061579 32.0501167 14.5061579 31.7424878 14.5061579 31.3701896 14.4828051 31.1195956 14.4810087L31.1195956 14.6184312 31.1815705 14.6184312C31.4124044 14.6184312 31.6885967 14.6588496 31.6885967 15.0167768L31.6885967 18.4101696C31.6885967 18.7680968 31.4124044 18.8080212 31.1815705 18.8080212L31.1195956 18.8080212 31.1195956 18.9463419C31.3701896 18.9436474 31.7361556 18.9202945 32.0429312 18.9202945 32.3581946 18.9202945 32.7331873 18.9445455 33.0385707 18.9463419L33.0385707 18.9463419zM37.5155803 17.6974139L37.5285591 17.6848393 37.5285591 15.2561435C37.5285591 14.7244172 37.1590004 14.6471732 36.9649921 14.6471732L36.8221356 14.6471732 36.8221356 14.4526709C37.1270698 14.4526709 37.4248186 14.4782692 37.7288547 14.4782692 37.9942238 14.4782692 38.26103 14.4526709 38.525995 14.4526709L38.525995 14.6471732 38.4289909 14.6471732C38.1563913 14.6471732 37.8519062 14.698774 37.8519062 15.4694627L37.8519062 18.4173102C37.8519062 18.643698 37.8585977 18.8699961 37.8904833 19.0707856L37.6439761 19.0707856 34.3094594 15.3527434 34.3094594 18.021704C34.3094594 18.5853159 34.418589 18.7788751 34.9179806 18.7788751L35.0275144 18.7788751 35.0275144 18.9742306C34.7495707 18.9742306 34.4715371 18.9486323 34.1926503 18.9486323 33.902087 18.9486323 33.6039341 18.9742306 33.3120235 18.9742306L33.3120235 18.7788751 33.4027403 18.7788751C33.849588 18.7788751 33.985259 18.4752432 33.985259 17.9574837L33.985259 15.2292428C33.985259 14.8668246 33.6866121 14.6472181 33.3964979 14.6472181L33.3120235 14.6472181 33.3120235 14.4527607C33.5581266 14.4527607 33.8105618 14.4783141 34.0562158 14.4783141 34.2506282 14.4783141 34.4388431 14.4527607 34.6328065 14.4527607L37.5155803 17.6974139 37.5155803 17.6974139z"/>
    <path fill="#FFF" d="M37.8903486 19.0990785L37.623183 19.0891535 34.3366744 15.4259456 34.3366744 18.021704C34.344309 18.5848668 34.4300858 18.7447889 34.917801 18.7510313L35.0565708 18.7510313 35.0565708 18.7788751 35.0565708 19.0016253 35.0278288 19.0016253C34.7475947 19.0016253 34.4687078 18.9755779 34.1924706 18.9755779 33.9023565 18.9755779 33.6050568 19.0016253 33.3113499 19.0016253L33.2830121 19.0016253 33.2830121 18.9737815 33.2830121 18.7510313 33.3113499 18.7510313 33.4025158 18.7510313C33.8305015 18.7487858 33.9526549 18.4739408 33.9575949 17.9574837L33.9575949 15.2296919C33.9566518 14.8847884 33.673768 14.6755109 33.3962285 14.6746128L33.2830121 14.6746128 33.2830121 14.6458708 33.2830121 14.424917 33.311305 14.424917C33.5588002 14.424917 33.8124929 14.4496171 34.0554523 14.4496171 34.2481133 14.4496171 34.4358791 14.424917 34.6540935 14.4343479L37.5004459 17.6386725 37.5004459 15.2566824C37.4968531 14.7411235 37.1533418 14.6791486 36.9646777 14.6746128L36.7931242 14.6746128 36.7931242 14.6458708 36.7931242 14.424917 36.8218661 14.424917C37.1277435 14.424917 37.4258964 14.4496171 37.7285852 14.4496171 37.9922029 14.4496171 38.2576169 14.424917 38.5252765 14.424917L38.5535693 14.424917 38.5535693 14.4527607 38.5535693 14.6745679 38.5252765 14.6745679 38.4287214 14.6745679C38.161511 14.6822473 37.8871151 14.7055553 37.8795254 15.4694627L37.8795254 18.4168611C37.8795254 18.643204 37.8862169 18.869547 37.9176983 19.0658007L37.9239856 19.0990785 37.8903486 19.0990785 37.8903486 19.0990785zM37.6442904 19.0419988L37.6442904 19.0419988 37.8585079 19.0419988C37.8293617 18.8475414 37.8243768 18.6319767 37.8243768 18.4168611L37.8243768 15.4694627C37.8243768 14.6920825 38.1499693 14.6184761 38.4288562 14.6184761L38.4971183 14.6184761 38.4971183 14.4810087C38.2420334 14.4828051 37.9860503 14.5061579 37.7287648 14.5061579 37.4323634 14.5061579 37.1440456 14.4828051 36.8507877 14.4810087L36.8503386 14.6184761 36.9648574 14.6184761C37.1638057 14.6184761 37.5567622 14.7073517 37.5567622 15.2566375L37.5477803 17.7041503 37.5347566 17.717668 37.5127959 17.7378772 34.6327166 14.4810087C34.4405497 14.4810087 34.2527838 14.5061579 34.0556319 14.5061579 33.8180617 14.5061579 33.5751023 14.4828051 33.3402266 14.4810087L33.3388793 14.6184312 33.3963632 14.6184312C33.7003993 14.6184312 34.012519 14.8506124 34.012519 15.229647L34.012519 17.9574388C34.012519 18.4751983 33.8683601 18.806629 33.4026505 18.8084254L33.3402266 18.806629 33.3402266 18.946297C33.6209098 18.9436025 33.9092276 18.9202496 34.1925604 18.9202496 34.4629594 18.9202496 34.7319662 18.9436474 34.9995808 18.946297L34.9995808 18.8084254 34.9178908 18.8084254C34.4081252 18.806629 34.2815258 18.5848219 34.2810318 18.0216142L34.2810318 15.2799005 37.6442904 19.0419988 37.6442904 19.0419988zM37.5475874 17.781722L37.5475874 17.781722 37.6231588 17.712722 37.5475874 17.781722zM37.5673865 17.7531362L37.5673865 17.7531362 37.5673865 17.7449219 37.5476722 17.728329 37.5673865 17.7531362zM39.4954524 14.7760629C39.0090845 14.7760629 38.9906717 14.892872 38.8936676 15.3652731L38.6992102 15.3652731C38.7248085 15.1842886 38.7571432 15.003304 38.7769033 14.8146849 38.8029058 14.6332513 38.8154805 14.4526709 38.8154805 14.2649949L38.9713158 14.2649949C39.0234106 14.4594522 39.185129 14.4527158 39.3607244 14.4527158L42.7015284 14.4527158C42.8766298 14.4527158 43.0383483 14.4464285 43.0518211 14.251567L43.2062642 14.2776144C43.181115 14.4527158 43.1550676 14.627458 43.1353075 14.8025594 43.1236311 14.9773015 43.1236311 15.152403 43.1236311 15.3266511L42.9287246 15.3989551C42.9152518 15.1595885 42.8829171 14.7760629 42.4495422 14.7760629L41.3874369 14.7760629 41.3874369 18.2224038C41.3874369 18.7217953 41.6142739 18.7788751 41.9241033 18.7788751L42.0476039 18.7788751 42.0476039 18.9742306C41.7952135 18.9742306 41.3412252 18.9486323 40.992235 18.9486323 40.6038143 18.9486323 40.1497362 18.9742306 39.8968968 18.9742306L39.8968968 18.7788751 40.0203974 18.7788751C40.3774264 18.7788751 40.5579619 18.7469446 40.5579619 18.2358766L40.5579619 14.7760629 39.4954524 14.7760629 39.4954524 14.7760629z"/>
    <path fill="#FFF" d="M42.0486368 19.0016253C41.793507 19.0016253 41.340372 18.9755779 40.9923248 18.9755779 40.6043083 18.9755779 40.1512182 19.0016253 39.8969866 19.0016253L39.870041 19.0016253 39.870041 18.9742306 39.870041 18.7510313 39.8969866 18.7510313 40.0204872 18.7510313C40.3775163 18.7424985 40.5211812 18.7380076 40.5293097 18.2358766L40.5293097 14.8044007 39.4954973 14.8044007 39.4954973 14.7760629 39.4954973 14.7473209 40.5854913 14.7473209 40.5854913 18.2358766C40.5854913 18.7554773 40.3762139 18.8080212 40.0205321 18.8084703L39.9253244 18.8084703 39.9253244 18.9449946C40.1808584 18.9436923 40.6164787 18.9202945 40.9923697 18.9202945 41.3301326 18.9202945 41.7630135 18.9436923 42.0189966 18.9449946L42.0189966 18.8084703 41.924238 18.8084703C41.6112201 18.8080212 41.3592788 18.7312263 41.3592788 18.2224038L41.3592788 14.7473209 42.449677 14.7473209C42.8843991 14.7491173 42.9409849 15.118721 42.9553559 15.3589858L43.0950238 15.3073401C43.0950238 15.1384811 43.095922 14.969173 43.1075984 14.7985176 43.1264603 14.631904 43.1502623 14.4666377 43.1745133 14.3013714L43.0756679 14.284755C43.0456236 14.4733741 42.8636959 14.4828051 42.7006751 14.4810087L39.3607694 14.4810087 39.3270874 14.4810087C39.1748448 14.4810087 39.0082312 14.4738232 38.9502982 14.2928836L38.843414 14.2928836C38.8424709 14.4720718 38.8298963 14.6458708 38.8051962 14.8182777 38.7863343 14.9961635 38.7566942 15.167268 38.7324431 15.3383724L38.8712578 15.3383724C38.9565406 14.8869889 39.0122731 14.7405845 39.4954524 14.7473659L39.4954524 14.7761078 39.4954524 14.8044007C39.0167191 14.8129335 39.0266441 14.8937702 38.9210623 15.3725035L38.9161671 15.3945091 38.8937125 15.3945091 38.6669204 15.3945091 38.6705132 15.3608271C38.6965606 15.1793935 38.7293893 14.9988131 38.7486554 14.810194 38.775601 14.6305567 38.7881756 14.4509195 38.7881756 14.2649949L38.7881756 14.236702 38.8155703 14.236702 38.9934112 14.236702 38.9979021 14.2569112C39.0423623 14.4203811 39.1622702 14.4212793 39.3270874 14.4239739L39.3607694 14.4239739 42.7006751 14.4239739C42.8812555 14.4212793 43.0123458 14.4185848 43.0235731 14.2492317L43.0262677 14.2186934 43.0554587 14.2249807 43.2382396 14.2537676 43.2341529 14.2820604C43.2081055 14.4554104 43.1825521 14.6305567 43.1636902 14.8043558 43.1506665 14.9768075 43.1506665 15.1519539 43.1506665 15.3266511L43.1506665 15.3468603 43.1327027 15.3540458 42.9032161 15.4375322 42.9014647 15.3998084C42.8843542 15.1563999 42.8587559 14.8043109 42.4496321 14.8043109L41.4158196 14.8043109 41.4158196 18.2223588C41.4216578 18.7109722 41.6156212 18.7446542 41.9241482 18.7509415L42.0759416 18.7509415 42.0759416 18.7787853 42.0759416 19.0015355 42.0486368 19.0016253 42.0486368 19.0016253zM43.4134309 18.7788302L43.5045968 18.7788302C43.7372719 18.7788302 43.9837343 18.7474386 43.9837343 18.4101247L43.9837343 15.0167768C43.9837343 14.6790139 43.7372719 14.6471732 43.5045968 14.6471732L43.4134309 14.6471732 43.4134309 14.4527158C43.8077347 14.4527158 44.4823175 14.4783141 45.0251813 14.4783141 45.5704253 14.4783141 46.2427177 14.4527158 46.6827841 14.4527158 46.6720957 14.7307045 46.677889 15.1591394 46.6971551 15.4434602L46.5017996 15.4955101C46.4708571 15.0747548 46.393119 14.738384 45.7127429 14.738384L44.8132542 14.738384 44.8132542 16.4346088 45.5830448 16.4346088C45.9714206 16.4346088 46.0563441 16.2150023 46.094517 15.8643054L46.2885252 15.8643054C46.2759955 16.1179982 46.2692142 16.3704334 46.2692142 16.6228238 46.2692142 16.8693759 46.2759506 17.1150299 46.2885252 17.3611329L46.094517 17.39971C46.0563441 17.0112893 46.0366289 16.7588541 45.5892872 16.7588541L44.8132991 16.7588541 44.8132991 18.267358C44.8132991 18.6890565 45.1873937 18.6890565 45.6023558 18.6890565 46.3796911 18.6890565 46.7223492 18.6365126 46.9168515 17.8991016L47.09833 17.9435618C47.0134065 18.2875672 46.9361625 18.6302253 46.8786785 18.9742306 46.4637165 18.9742306 45.7186709 18.9486323 45.1366013 18.9486323 44.5527802 18.9486323 43.7826753 18.9742306 43.4134309 18.9742306L43.4134309 18.7788302 43.4134309 18.7788302z"/>
    <path fill="#FFF" d="M46.8780498 19.0016253C46.4621896 19.0016253 45.7175931 18.9750839 45.1360624 18.9750839 44.5526904 18.9750839 43.7828998 19.0016253 43.4132961 19.0016253L43.3859464 19.0016253 43.3859464 18.9742306 43.3859464 18.7788751 43.3859464 18.7510313 43.4132961 18.7510313 43.5040579 18.7510313C43.7388887 18.7474386 43.9517588 18.7267803 43.9549474 18.4101696L43.9549474 15.0167768C43.9518037 14.7006153 43.7388887 14.6795079 43.5040579 14.6745679L43.3859464 14.6745679 43.3859464 14.6472181 43.3859464 14.424917 43.4132961 14.424917C43.8084981 14.424917 44.4821378 14.4496171 45.0250915 14.4496171 45.5697966 14.4496171 46.2416848 14.424917 46.6826943 14.424917L46.7118854 14.424917 46.7104932 14.4536589C46.7060022 14.5511121 46.7042508 14.6660351 46.7042508 14.7882333 46.7042508 15.0122859 46.7104932 15.2570417 46.7235618 15.4416639L46.72446 15.4650167 46.7029035 15.4713489 46.4752133 15.5306292 46.4739109 15.4973963C46.435738 15.0770451 46.3796013 14.7721109 45.7127429 14.7658236L44.8401549 14.7658236 44.8392118 16.4054627 45.582955 16.4054627C45.9557472 16.4018699 46.0225723 16.2110053 46.0666283 15.86206L46.0689187 15.8364617 46.094023 15.8364617 46.3172672 15.8364617 46.3168181 15.8656078C46.3042884 16.1179982 46.2961149 16.3703885 46.2961149 16.6227789 46.2961149 16.8679837 46.3042884 17.1136377 46.3168181 17.3601898L46.3172672 17.3831385 46.2939144 17.3884827 46.0689187 17.433392 46.0666283 17.4028537C46.0221681 17.0076517 46.0189795 16.7911888 45.5887483 16.7862937L44.84011 16.7857997 44.84011 18.267358C44.8406489 18.6607636 45.1800735 18.6585181 45.602266 18.6607636 46.3818468 18.6562727 46.6944605 18.6185937 46.8898161 17.8910179L46.8961483 17.8649705 46.923498 17.8699105 47.131024 17.9233077 47.1246918 17.9502982C47.0412054 18.2934054 46.9634673 18.6356144 46.9054894 18.9786766L46.9001452 19.0016253 46.8780498 19.0016253 46.8780498 19.0016253zM46.8542928 18.9450395L46.8542928 18.9450395C46.9104294 18.6185039 46.98444 18.2907108 47.0640193 17.9646243L46.9360277 17.9322896C46.7420195 18.6571708 46.3664878 18.7217953 45.6021762 18.7169002 45.1943996 18.7169002 44.7857248 18.7169002 44.7838835 18.2673131L44.7838835 16.7305163 45.5887483 16.7305163C46.0408953 16.7255763 46.0872417 16.9986249 46.1190824 17.3673304L46.2592444 17.3381843C46.2466248 17.0996709 46.2408315 16.8603042 46.2408315 16.6227339 46.2408315 16.3788764 46.2466248 16.136411 46.2592444 15.8925085L46.1190824 15.8925085C46.0831998 16.2297774 45.977618 16.4668986 45.5829101 16.4624077L44.7839284 16.4624077 44.7839284 14.709148 45.7127429 14.709148C46.3863826 14.7046122 46.498117 15.0522552 46.5269039 15.4595827L46.6666168 15.4218589C46.6553894 15.2390779 46.647665 15.0046513 46.647665 14.7881884 46.647665 14.6772624 46.6504045 14.5726237 46.6539972 14.4810087 46.2139309 14.4828051 45.55821 14.5061579 45.0251364 14.5061579 44.492961 14.5061579 43.837779 14.4828051 43.4411848 14.4810087L43.4411848 14.6184312 43.504013 14.6184312C43.7348468 14.6184312 44.0106349 14.6588496 44.0114882 15.0167768L44.0114882 18.4101696C44.01059 18.7671987 43.7348468 18.8067189 43.504013 18.8085152L43.4411848 18.8085152 43.4411848 18.9450395C43.8189171 18.9445455 44.5671063 18.9203394 45.1360175 18.9203394 45.707264 18.9203394 46.4365912 18.9445455 46.8542928 18.9450395L46.8542928 18.9450395zM47.9722204 15.1389302C47.9722204 14.6664842 47.7135427 14.6471732 47.5118999 14.6471732L47.3955848 14.6471732 47.3955848 14.4522667C47.6030209 14.4522667 48.0040611 14.4783141 48.399308 14.4783141 48.7877735 14.4783141 49.0989951 14.4522667 49.4416981 14.4522667 50.2571614 14.4522667 50.9834349 14.6727715 50.9834349 15.5934124 50.9834349 16.1749881 50.5949693 16.531568 50.0834073 16.7332109L51.1904219 18.3903646C51.3718106 18.6643114 51.5007453 18.7411063 51.8187032 18.7787853L51.8187032 18.9742306C51.6049349 18.9742306 51.3974089 18.9485874 51.1840897 18.9485874 50.98339 18.9485874 50.7754149 18.9742306 50.5755236 18.9742306 50.0770302 18.319857 49.6486402 17.6201698 49.227795 16.8746752L48.8016954 16.8746752 48.8016954 18.2614749C48.8016954 18.7608664 49.0338766 18.7788302 49.3315804 18.7788302L49.4483447 18.7788302 49.4483447 18.9742306C49.0782919 18.9742306 48.7042871 18.9486323 48.3346385 18.9486323 48.023417 18.9486323 47.7188869 18.9742306 47.3955848 18.9742306L47.3955848 18.7788302 47.5118999 18.7788302C47.7525689 18.7788302 47.9722204 18.6701496 47.9722204 18.4298848L47.9722204 15.1389302 47.9722204 15.1389302zM48.8016056 16.6415959L48.8016056 16.6415959 49.1178121 16.6415959C49.7658535 16.6415959 50.114754 16.3955377 50.114754 15.6311363 50.114754 15.0553988 49.7460934 14.6857952 49.1690087 14.6857952 48.9745514 14.6857952 48.8919182 14.7060044 48.8015607 14.7118426L48.8015607 16.6415959 48.8016056 16.6415959z"/>
    <path fill="#FFF" d="M51.8187032 19.0016702C51.6017912 19.0016702 51.3956575 18.9755779 51.1827873 18.9755779 50.9851863 18.9755779 50.7786035 19.0016702 50.5527545 18.9908471 50.0560126 18.3392129 49.6302723 17.6435676 49.2117175 16.9034621L48.8290901 16.9034621 48.8290901 18.2606665C48.8358265 18.7479326 49.0316311 18.7438907 49.3311763 18.7510762L49.4762333 18.7510762 49.4762333 18.77892 49.4762333 19.0016702 49.4474465 19.0016702C49.0773937 19.0016702 48.7015477 18.9756228 48.3337404 18.9756228 48.0242703 18.9756228 47.7207282 19.0016702 47.3955399 19.0016702L47.3672021 19.0016702 47.3672021 18.9738264 47.3672021 18.7510762 47.3955399 18.7510762 47.511855 18.7510762C47.7453385 18.7497289 47.9420862 18.6482339 47.9429844 18.4299746L47.9429844 15.1390649C47.9380893 14.6791935 47.7130936 14.6818432 47.511855 14.6751517L47.3672021 14.6751517 47.3672021 14.6473079 47.3672021 14.4241086 47.3955399 14.4241086C47.6052664 14.4241086 48.0049593 14.449662 48.3992631 14.449662 48.7858873 14.449662 49.0971987 14.4241086 49.4421023 14.4241086 50.2581045 14.425905 51.0098865 14.6513497 51.012087 15.5917508 51.012087 16.1769192 50.6254627 16.541987 50.1255771 16.7459202L51.2137298 18.3751852C51.3947593 18.643743 51.5074817 18.7107027 51.8227451 18.7510762L51.8465021 18.754669 51.8465021 18.77892 51.8465021 19.0016702 51.8187032 19.0016702 51.8187032 19.0016702zM48.8008422 16.8468314L48.8008422 16.8468314 49.2436031 16.8468314 49.2512377 16.8612024C49.6733852 17.6053498 50.0986315 18.3041387 50.5756134 18.9463419 50.7732144 18.9463419 50.9810996 18.9198454 51.1827873 18.9198454 51.3897744 18.9198454 51.5891717 18.9423001 51.7908145 18.9454437L51.7908145 18.8035303C51.4867785 18.7658065 51.3444609 18.6750897 51.1675182 18.4060829L50.0407434 16.7196932 50.0725841 16.7066695C50.5792061 16.507317 50.9541989 16.1610662 50.954648 15.5915712 50.9541989 14.6929358 50.2562632 14.4846014 49.4421023 14.4810087 49.1002975 14.4810087 48.789525 14.506607 48.3992631 14.506607 48.0189261 14.506607 47.6349065 14.4828051 47.4229345 14.4810087L47.4229345 14.6184312 47.511855 14.6184312C47.7130487 14.6189252 47.9995252 14.6521132 47.9995252 15.1389751L47.9995252 18.4298848C47.9995252 18.6899097 47.7556677 18.8084703 47.511855 18.8089194L47.4229345 18.8089194 47.4229345 18.9453988C47.7346501 18.9445006 48.0296594 18.9198454 48.3337404 18.9198454 48.6960687 18.9198454 49.0612264 18.9445455 49.4196476 18.9453988L49.4196476 18.8089194 49.3311313 18.8089194C49.0356281 18.8084254 48.7725044 18.7716447 48.7725044 18.2605767L48.7725044 16.8468314 48.8007523 16.8468314 48.8008422 16.8468314zM48.8008422 16.6689905L48.8008422 16.6689905 48.7725044 16.6689905 48.7725044 14.6857952 48.7971596 14.6835497C48.8856758 14.6768582 48.9732939 14.6584005 49.1690536 14.6584005 49.7592069 14.6584005 50.1426876 15.0419261 50.1435409 15.6324386 50.1417894 16.405777 49.7708385 16.6684965 49.1178121 16.6689456L48.8008422 16.6689456 48.8008422 16.6689905zM49.1178121 16.6133479L49.1178121 16.6133479C49.7590722 16.6079139 50.0816109 16.3852086 50.0883473 15.6324835 50.0847546 15.0666262 49.7331146 14.7154353 49.1690087 14.7131899 48.9938624 14.7131899 48.9116783 14.7293572 48.8290452 14.7365876L48.8290452 16.6133479 49.1178121 16.6133479 49.1178121 16.6133479zM56.2157743 17.6974139L56.2274507 17.6848393 56.2274507 15.2561435C56.2274507 14.7244172 55.8587901 14.6471732 55.6647819 14.6471732L55.5228685 14.6471732 55.5228685 14.4526709C55.8269045 14.4526709 56.1242491 14.4782692 56.4291384 14.4782692 56.6950016 14.4782692 56.9595624 14.4526709 57.2267279 14.4526709L57.2267279 14.6471732 57.1292747 14.6471732C56.8571691 14.6471732 56.5526391 14.698774 56.5526391 15.4694627L56.5526391 18.4173102C56.5526391 18.643698 56.5589713 18.8699961 56.590812 19.0707856L56.3452029 19.0707856 53.0102372 15.3527434 53.0102372 18.021704C53.0102372 18.5853159 53.1202201 18.7788751 53.6187135 18.7788751L53.7287862 18.7788751 53.7287862 18.9742306C53.4507527 18.9742306 53.1719107 18.9486323 52.8939221 18.9486323 52.6014726 18.9486323 52.3037687 18.9742306 52.0127564 18.9742306L52.0127564 18.7788751 52.102575 18.7788751C52.5499167 18.7788751 52.685947 18.4752432 52.685947 17.9574837L52.685947 15.2292428C52.685947 14.8668246 52.3881533 14.6472181 52.0972308 14.6472181L52.0127564 14.6472181 52.0127564 14.4527607C52.2580061 14.4527607 52.5117438 14.4783141 52.7573528 14.4783141 52.9505078 14.4783141 53.139082 14.4527607 53.3335393 14.4527607L56.2157743 17.6974139 56.2157743 17.6974139z"/>
    <path fill="#FFF" d="M56.5910365 19.0985845L56.3243201 19.0896026 53.0374522 15.4259456 53.0374522 18.0212549C53.0450868 18.5848668 53.1304145 18.7446991 53.6189829 18.7510313L53.7560013 18.7510313 53.7560013 18.7788751 53.7560013 19.0016253 53.7276635 19.0016253C53.4475192 19.0016253 53.1698898 18.9750839 52.8923502 18.9750839 52.6031791 18.9750839 52.3040382 19.0016253 52.0125767 19.0016253L51.9833857 19.0016253 51.9833857 18.9742306 51.9833857 18.7510313 52.0125767 18.7510313 52.1023954 18.7510313C52.5299321 18.7492349 52.6525345 18.4739408 52.6565763 17.9556873L52.6565763 15.2292428C52.6561272 14.8842944 52.3736925 14.6750619 52.0970512 14.6745679L51.9833857 14.6745679 51.9833857 14.6472181 51.9833857 14.4240188 52.0125767 14.4240188C52.259578 14.4240188 52.5129114 14.4495722 52.7571732 14.4495722 52.9475887 14.4495722 53.1353096 14.4240188 53.3526707 14.4329557L56.1995171 17.6386276 56.1995171 15.2556944C56.1976758 14.7410336 55.8527723 14.6772624 55.6646472 14.6746128L55.4934978 14.6746128 55.4934978 14.6472181 55.4934978 14.4240188 55.5218355 14.4240188C55.8281171 14.4240188 56.12627 14.4495722 56.4289588 14.4495722 56.6930705 14.4495722 56.9584845 14.4240188 57.225201 14.4240188L57.2534489 14.4240188 57.2534489 14.4532098 57.2534489 14.6746128 57.225201 14.6746128 57.1290501 14.6746128C56.8618846 14.6817983 56.5865456 14.7055553 56.5798092 15.4695076L56.5798092 18.4168611C56.5798092 18.643204 56.5856923 18.8677506 56.6184761 19.067148L56.6220689 19.0985845 56.5910365 19.0985845 56.5910365 19.0985845zM56.3449784 19.0419988L56.3449784 19.0419988 56.5578485 19.0419988C56.5295108 18.8475414 56.5232235 18.6319767 56.5232235 18.4168611L56.5232235 15.4694627C56.5236725 14.6920376 56.8515555 14.6202276 57.1290501 14.6179821L57.1968632 14.6179821 57.1968632 14.4810087C56.9426765 14.4828051 56.6862892 14.5061579 56.4289139 14.5061579 56.1316591 14.5061579 55.8428024 14.4828051 55.5495895 14.4810087L55.5495895 14.6179821 55.6646023 14.6179821C55.8639547 14.6202276 56.256507 14.7073517 56.256507 15.2556944L56.2475701 17.7041503 56.2349506 17.7176231 56.2152354 17.7382813 53.3329555 14.4810087C53.1406987 14.4810087 52.9529778 14.5062028 52.7572181 14.5062028 52.5174024 14.5062028 52.2753411 14.48285 52.0395672 14.4810087L52.0395672 14.618027 52.0970063 14.618027C52.4010872 14.6202725 52.713207 14.8497591 52.713207 15.2292428L52.713207 17.9556424C52.713207 18.4756923 52.5668026 18.8066739 52.1024403 18.8084703L52.0395672 18.8080212 52.0395672 18.9449946C52.3193523 18.9436474 52.6081192 18.9202945 52.8923951 18.9202945 53.1641414 18.9202945 53.4331482 18.9436474 53.7007628 18.9449946L53.7007628 18.8084703 53.6190279 18.8084703C53.1089029 18.8080212 52.9813605 18.5848668 52.9804623 18.02121L52.9804623 15.2808436 56.3449784 19.0419988 56.3449784 19.0419988zM56.2490797 17.7811251L56.2490797 17.7811251 56.3212012 17.713768 56.2490797 17.7811251zM56.2657858 17.7540776L56.2657858 17.7540776 56.2657858 17.745699 56.2475501 17.7277919 56.2657858 17.7540776zM58.2680851 18.0477065C58.2025624 18.2673131 58.1244202 18.4370703 58.1244202 18.5524872 58.1244202 18.7473937 58.3970197 18.7788302 58.6099348 18.7788302L58.6821939 18.7788302 58.6821939 18.9741857C58.4226629 18.9602189 58.1581022 18.9485874 57.897179 18.9485874 57.6641446 18.9485874 57.4323676 18.9603087 57.1988841 18.9741857L57.1988841 18.7788302 57.2379103 18.7788302C57.4902557 18.7788302 57.704563 18.6301354 57.8001749 18.3575808L58.8375801 15.3854374C58.9211563 15.1456217 59.0387738 14.8218255 59.0779348 14.5816056 59.2840685 14.5110979 59.5435995 14.3817591 59.6662468 14.3036169 59.6864111 14.2969254 59.6976384 14.2901441 59.7178925 14.2901441 59.7372035 14.2901441 59.7497332 14.2901441 59.7641042 14.3103533 59.7829661 14.3615499 59.801828 14.4203811 59.8225312 14.4720268L61.0139304 17.8599856C61.0916235 18.0863285 61.1683736 18.3256952 61.2524438 18.5206016 61.330586 18.7020352 61.4670654 18.7788302 61.6812829 18.7788302L61.7194558 18.7788302 61.7194558 18.9741857C61.4280841 18.9602638 61.1361736 18.9486323 60.8262544 18.9486323 60.5087455 18.9486323 60.1840063 18.9603087 59.8539677 18.9741857L59.8539677 18.7788302 59.9258226 18.7788302C60.0740683 18.7788302 60.3273568 18.753681 60.3273568 18.5915583 60.3273568 18.5075779 60.2689298 18.3328807 60.1966707 18.1249505L59.9446845 17.3736177 58.4748476 17.3736177 58.2680851 18.0477065 58.2680851 18.0477065zM59.213022 15.1780013L59.213022 15.1780013 59.1999534 15.1780013 58.5977195 17.0111995 59.8080704 17.0111995 59.213022 15.1780013z"/>
    <path fill="#FFF" d="M61.7176145 19.0016253C61.426153 18.9886016 61.1346916 18.9750839 60.8261646 18.9750839 60.5086557 18.9750839 60.1862068 18.9886016 59.8547312 19.0016253L59.8255401 19.0034217 59.8255401 18.9742306 59.8255401 18.7501331 59.8538779 18.7501331 59.9252837 18.7501331C60.0752808 18.7501331 60.2979861 18.716002 60.2979861 18.5916481 60.2998274 18.517952 60.2414004 18.3401111 60.1699946 18.1340222L59.9234424 17.4015513 58.494922 17.4015513 58.2937283 18.0558351C58.2281158 18.2767889 58.1505125 18.4478934 58.1509167 18.5534303 58.1531172 18.711556 58.3951784 18.7501331 58.609845 18.7501331L58.7095886 18.7501331 58.7095886 18.7793242 58.7095886 19.0034217 58.6803975 19.0016253C58.4212708 18.9886016 58.1567549 18.9750839 57.8985263 18.9750839 57.6663452 18.9750839 57.4328616 18.9886016 57.2006805 19.0016253L57.1705912 19.0034217 57.1705912 18.9742306 57.1705912 18.7501331 57.1988392 18.7501331 57.2375061 18.7501331C57.4786242 18.7492349 57.6798629 18.6123064 57.7732742 18.3486888L58.8102303 15.3761412C58.8951538 15.1358763 59.0118732 14.8129784 59.0680098 14.5547498 59.2709999 14.4860385 59.5309799 14.3558015 59.6558727 14.2767611 59.6738365 14.2709229 59.6918451 14.26191 59.7183416 14.26191 59.7340599 14.261492 59.7690442 14.2655338 59.7897474 14.2997098 59.8081602 14.353107 59.8283245 14.4106358 59.8480846 14.4631797L61.0409209 17.8507343C61.1173117 18.0779754 61.1945108 18.3173421 61.2789852 18.5086108 61.3539838 18.6815566 61.4729935 18.7493248 61.6813278 18.7502229L61.7473894 18.7502229 61.7473894 18.779414 61.7473894 19.0035115 61.7176145 19.0016253 61.7176145 19.0016253zM59.8821259 18.9436923L59.8821259 18.9436923C60.2028233 18.9324649 60.5167394 18.9198903 60.8261646 18.9198903 61.1270121 18.9198903 61.4085935 18.9324649 61.69013 18.9436923L61.69013 18.8084703 61.681193 18.8084703C61.4593859 18.8098176 61.3062003 18.7227384 61.2266659 18.5318738 61.1422813 18.335171 61.0632409 18.0949062 60.987389 17.8681142L59.7950018 14.4810536C59.7752866 14.4294079 59.7564247 14.3705767 59.7393142 14.3247692 59.73397 14.3184819 59.7352724 14.3184819 59.7299282 14.3184819L59.718162 14.3184819C59.7047341 14.3184819 59.6970995 14.3225237 59.6804381 14.3270147 59.5556351 14.4083005 59.2956551 14.5353939 59.1038025 14.5861414 59.0638781 14.8313463 58.947563 15.1546933 58.8631335 15.3945091L57.8266265 18.3675058C57.7278709 18.6486381 57.501034 18.8089643 57.2374612 18.8084703L57.2271321 18.8084703 57.2271321 18.9436923C57.4489392 18.9324649 57.6734857 18.9198903 57.8984814 18.9198903 58.1486263 18.9198903 58.4046094 18.9324649 58.6516106 18.9436923L58.6516106 18.8084703 58.609845 18.8084703C58.3992652 18.8057758 58.1046152 18.7819738 58.0965315 18.5533854 58.0969806 18.4240466 58.176515 18.2583761 58.2397473 18.0396678L58.2680851 18.0481556 58.2397473 18.0387247 58.4530666 17.346223 59.9629626 17.346223 60.2229427 18.1160136C60.2957407 18.3239437 60.354527 18.4963955 60.354527 18.5916032 60.34559 18.7905515 60.0720923 18.8044734 59.9252388 18.8085152L59.882081 18.8085152 59.882081 18.9436923 59.8821259 18.9436923zM58.5582442 17.0390433L58.5582442 17.0390433 59.1783969 15.1497084 59.1999534 15.1497084 59.2134711 15.1497084 59.2134711 15.1780013 59.2062856 15.1793486 59.2134711 15.1780013 59.2134711 15.1497084 59.2327821 15.1497084 59.8475457 17.0390433 58.5582442 17.0390433zM58.6358924 16.9829067L58.6358924 16.9829067 59.7694035 16.9829067 59.2057467 15.2471616 58.6358924 16.9829067zM59.2251244 15.2523838L59.2251244 15.2523838 59.2793387 15.2343123 59.2251244 15.2523838zM62.0041808 14.7760629C61.518262 14.7760629 61.498951 14.892872 61.401408 15.3652731L61.2069507 15.3652731C61.232549 15.1842886 61.2653777 15.003304 61.2856318 14.8146849 61.3115894 14.6332513 61.3233556 14.4526709 61.3233556 14.2649949L61.4795951 14.2649949C61.5312408 14.4594522 61.6938575 14.4527158 61.8676565 14.4527158L65.2102569 14.4527158C65.3841008 14.4527158 65.5457743 14.4464285 65.5592471 14.251567L65.7141394 14.2776144C65.6893943 14.4527158 65.6638858 14.627458 65.6440359 14.8025594 65.6301589 14.9773015 65.6301589 15.152403 65.6301589 15.3266511L65.4361507 15.3989551C65.4239803 15.1595885 65.3916905 14.7760629 64.9574174 14.7760629L63.8953121 14.7760629 63.8953121 18.2224038C63.8953121 18.7217953 64.1225981 18.7788751 64.4324724 18.7788751L64.5554341 18.7788751 64.5554341 18.9742306C64.3030887 18.9742306 63.8504028 18.9486323 63.5000652 18.9486323 63.1120936 18.9486323 62.6580156 18.9742306 62.4056701 18.9742306L62.4056701 18.7788751 62.5282725 18.7788751C62.8852567 18.7788751 63.0667352 18.7469446 63.0667352 18.2358766L63.0667352 14.7760629 62.0041808 14.7760629 62.0041808 14.7760629z"/>
    <path fill="#FFF" d="M64.555479 19.0016253C64.3012923 19.0016253 63.8477082 18.9755779 63.5001101 18.9755779 63.1129469 18.9755779 62.6593628 19.0016253 62.4056252 19.0016253L62.3769282 19.0016253 62.3769282 18.9742306 62.3769282 18.7510313 62.4056252 18.7510313 62.5282276 18.7510313C62.8852118 18.7424985 63.0285623 18.7380076 63.0374993 18.2358766L63.0366011 14.8044007 62.0041359 14.8044007 62.0041359 14.7760629 62.0041359 14.7473209 63.0936359 14.7473209 63.0936359 18.2358766C63.0936359 18.7554773 62.8839094 18.8066739 62.5282276 18.8080212L62.4330648 18.8080212 62.4330648 18.9463419C62.6894521 18.9436025 63.1241742 18.9202945 63.5001101 18.9202945 63.8382324 18.9202945 64.2712031 18.9436923 64.5271413 18.9463419L64.5271413 18.8080212 64.4315293 18.8080212C64.120218 18.8066739 63.8678725 18.7316754 63.8670192 18.2224038L63.8670192 14.7473209 64.9573725 14.7473209C65.3920947 14.7491173 65.4490846 15.118721 65.4612999 15.3589858L65.6027643 15.3073401C65.6027643 15.1384811 65.6032134 14.969173 65.6157431 14.7994157 65.6337068 14.6328022 65.6579129 14.4666377 65.6818047 14.3013265L65.5839024 14.2847101C65.5542622 14.4733292 65.3714813 14.4837033 65.2102569 14.4809638L61.8675667 14.4809638 61.8348278 14.4809638C61.6821361 14.4827602 61.5168699 14.4737783 61.4579937 14.2918956L61.3520527 14.2918956C61.3502114 14.4715328 61.3380859 14.6458259 61.3124876 14.8182777 61.2954669 14.9965676 61.2635364 15.1681212 61.2393303 15.3383275L61.3781001 15.3383275C61.4638769 14.886944 61.5200135 14.7405396 62.004091 14.7473209L62.004091 14.7760629 62.004091 14.8043558C61.5240553 14.8124844 61.5348336 14.8937253 61.4287578 15.3724586L61.4238627 15.3944642 61.401408 15.3944642 61.174122 15.3944642 61.1781638 15.3620846C61.2051094 15.1793486 61.2374441 14.9987682 61.256306 14.8114964 61.2828025 14.6305118 61.295422 14.4508746 61.295422 14.26495L61.295422 14.2366571 61.3232209 14.2366571 61.5001187 14.2366571 61.5055527 14.2568663C61.5509111 14.4203362 61.6689777 14.4212344 61.834738 14.423929L61.8674769 14.4248272 65.210167 14.4248272C65.3889061 14.4212793 65.5195473 14.4185398 65.5307746 14.2497257L65.5326159 14.2187383 65.5631543 14.2250705 65.7468334 14.2538125 65.7419382 14.2821053C65.7154417 14.4554553 65.6906967 14.6306016 65.6709815 14.8044007 65.6579129 14.9768525 65.6579129 15.1524479 65.6579129 15.326696L65.6579129 15.3469052 65.6395899 15.3540907 65.4100584 15.437622 65.408756 15.3998533C65.3920947 15.1564897 65.3664964 14.8043558 64.9573725 14.8043558L63.9231559 14.8043558 63.9231559 18.2224038C63.9298923 18.7110171 64.1234065 18.7446991 64.4315293 18.7509864L64.5832779 18.7509864 64.5832779 18.7788302 64.5832779 19.0016253 64.555479 19.0016253 64.555479 19.0016253zM65.9532815 18.7788302L66.0440432 18.7788302C66.2779758 18.7788302 66.5226867 18.7474386 66.5226867 18.4101247L66.5226867 15.0167768C66.5226867 14.6790139 66.2779758 14.6471732 66.0440432 14.6471732L65.9532815 14.6471732 65.9532815 14.4527158C66.2061658 14.4527158 66.5941823 14.4783141 66.9107481 14.4783141 67.2358915 14.4783141 67.624402 14.4527158 67.9288423 14.4527158L67.9288423 14.6471732 67.8381254 14.6471732C67.605091 14.6471732 67.3580898 14.6790588 67.3580898 15.0167768L67.3580898 18.4101247C67.3580898 18.7474386 67.605091 18.7788302 67.8381254 18.7788302L67.9288423 18.7788302 67.9288423 18.9742306C67.6176207 18.9742306 67.228706 18.9486323 66.905853 18.9486323 66.587895 18.9486323 66.2061658 18.9742306 65.9532815 18.9742306L65.9532815 18.7788302z"/>
    <path fill="#FFF" d="M67.9290668 19.0016253C67.6160938 19.0016253 67.2284815 18.9750839 66.9056284 18.9750839 66.5889728 18.9750839 66.2063904 19.0016253 65.953506 19.0016253L65.9252581 19.0016253 65.9252581 18.9742306 65.9252581 18.7788751 65.9252581 18.7510313 65.953506 18.7510313 66.0442677 18.7510313C66.2782004 18.7474386 66.4929118 18.7272294 66.49381 18.4101696L66.49381 15.0167768C66.4929118 14.7006153 66.2782004 14.6790139 66.0442677 14.6745679L65.9252581 14.6745679 65.9252581 14.6472181 65.9252581 14.424917 65.953506 14.424917C66.2063904 14.424917 66.595305 14.4496171 66.9109726 14.4496171 67.2339155 14.4496171 67.6223362 14.424917 67.9290668 14.424917L67.9565064 14.424917 67.9565064 14.4527158 67.9565064 14.6745679 67.9290668 14.6745679 67.83835 14.6745679C67.6016779 14.6790588 67.3892568 14.7006153 67.3861132 15.0167768L67.3861132 18.4101696C67.3892568 18.7272294 67.6017228 18.7474386 67.83835 18.7510313L67.9565064 18.7510313 67.9565064 18.7788751 67.9565064 19.0016253 67.9290668 19.0016253 67.9290668 19.0016253zM67.8999207 18.9450395L67.8999207 18.9450395 67.8999207 18.8080212 67.83835 18.8080212C67.6061688 18.8080212 67.3313687 18.7671987 67.3313687 18.4101696L67.3313687 15.0167768C67.3313687 14.6588496 67.6061688 14.6184312 67.83835 14.6184312L67.8999207 14.6184312 67.8999207 14.4810087C67.6008246 14.4828051 67.22673 14.5061579 66.9109726 14.5061579 66.604242 14.5061579 66.232842 14.4828051 65.9818438 14.4810087L65.9818438 14.6184312 66.0443127 14.6184312C66.2746525 14.6184312 66.5504406 14.6588496 66.5512939 15.0167768L66.5512939 18.4101696C66.5503957 18.7671538 66.2746525 18.8080212 66.0443127 18.8080212L65.9818438 18.8080212 65.9818438 18.9450395C66.2315845 18.9423001 66.5980445 18.9202945 66.9056284 18.9202945 67.2195445 18.9202945 67.5945373 18.9436923 67.8998757 18.9450395L67.8999207 18.9450395zM70.511577 14.3557117C71.8920893 14.3557117 72.9923675 15.2116833 72.9923675 16.5908483 72.9923675 18.0809843 71.92393 19.0711898 70.545259 19.0711898 69.1710339 19.0711898 68.1228954 18.1383784 68.1228954 16.7457855 68.1228954 15.3989551 69.1647466 14.3557117 70.511577 14.3557117L70.511577 14.3557117zM70.6094793 18.7860157L70.6094793 18.7860157C71.8660419 18.7860157 72.0847503 17.6776538 72.0847503 16.7332109 72.0847503 15.7865225 71.5746254 14.6404368 70.4990473 14.6404368 69.3655362 14.6404368 69.0291654 15.6508964 69.0291654 16.5180952 69.0291654 17.6776538 69.5599935 18.7860157 70.6094793 18.7860157L70.6094793 18.7860157z"/>
    <path fill="#FFF" d="M68.0938391 16.7457855C68.0965785 15.3832368 69.1510493 14.3292152 70.5113075 14.3274188L70.5113075 14.3557117 70.5113075 14.3830615C69.1802403 14.3830615 68.1499757 15.412877 68.1486733 16.7457406 68.151817 18.1226602 69.1851803 19.0415048 70.5450793 19.0419539 71.9102327 19.0415048 72.9634459 18.0651762 72.9656016 16.5895011 72.9642992 15.2278506 71.8805925 14.3848579 70.5113973 14.3830615L70.5113973 14.3557117 70.5113973 14.3274188C71.902643 14.328317 73.0177413 15.1928214 73.0204359 16.5895011 73.0191335 18.0952655 71.9367292 19.0958899 70.5450793 19.0985396 69.1599862 19.095845 68.0965785 18.1536476 68.0939289 16.7457406L68.0938391 16.7457406 68.0938391 16.7457855zM69.0010971 16.5180952L69.0010971 16.5180952C69.0028485 15.6468994 69.3432611 14.6112457 70.4992269 14.6112457 71.5986069 14.6139852 72.1119204 15.7816274 72.1136719 16.7332109 72.1119204 17.6776538 71.8896642 18.8130062 70.6097487 18.8130062L70.6097487 18.7860606 70.6097487 18.7581719C71.8411622 18.7564204 72.0544814 17.6776538 72.0575352 16.7332109 72.0575352 15.794202 71.5518563 14.6701218 70.4992269 14.6687296 69.3881705 14.6700769 69.0593894 15.6553873 69.0572337 16.5180952 69.0581319 17.6718156 69.58402 18.7554773 70.6097487 18.7581719L70.6097487 18.7860606 70.6097487 18.8130062C69.5345748 18.811614 69.0028485 17.6844351 69.0010971 16.5180952L69.0010971 16.5180952zM77.3566548 17.6974139L77.3697234 17.6848393 77.3697234 15.2561435C77.3697234 14.7244172 76.9996707 14.6471732 76.8052133 14.6471732L76.6650513 14.6471732 76.6650513 14.4526709C76.9686383 14.4526709 77.266432 14.4782692 77.569974 14.4782692 77.8362863 14.4782692 78.1017003 14.4526709 78.3675635 14.4526709L78.3675635 14.6471732 78.2696612 14.6471732C77.998364 14.6471732 77.6934747 14.698774 77.6934747 15.4694627L77.6934747 18.4173102C77.6934747 18.643698 77.6998069 18.8699961 77.7325907 19.0707856L77.4868918 19.0707856 74.150983 15.3527434 74.150983 18.021704C74.150983 18.5853159 74.2606066 18.7788751 74.7591 18.7788751L74.8699811 18.7788751 74.8699811 18.9742306C74.5911392 18.9742306 74.3131954 18.9486323 74.0346678 18.9486323 73.7432064 18.9486323 73.4446044 18.9742306 73.1531429 18.9742306L73.1531429 18.7788751 73.2442639 18.7788751C73.6920547 18.7788751 73.8263335 18.4752432 73.8263335 17.9574837L73.8263335 15.2292428C73.8263335 14.8668246 73.5298422 14.6472181 73.2375275 14.6472181L73.1531429 14.6472181 73.1531429 14.4527607C73.399201 14.4527607 73.6520405 14.4783141 73.8977393 14.4783141 74.0921967 14.4783141 74.2794685 14.4527607 74.4743749 14.4527607L77.3566548 17.6974139 77.3566548 17.6974139z"/>
    <path fill="#FFF" d="M77.7330398 19.0986294L77.4649761 19.0891535 74.1789615 15.4259007 74.1789615 18.021704C74.1860571 18.5848668 74.2718339 18.7442949 74.7582018 18.7501331L74.8983638 18.7501331 74.8983638 18.7793242 74.8983638 19.0016253 74.870026 19.0016253C74.5893428 19.0016253 74.311399 18.9755779 74.0347128 18.9755779 73.7441046 18.9755779 73.4468498 19.0016253 73.1526489 19.0016253L73.1257033 19.0016253 73.1257033 18.9737815 73.1257033 18.7501331 73.1526489 18.7501331 73.2443088 18.7501331C73.6713964 18.7488308 73.7939988 18.4739857 73.799343 17.9574837L73.799343 15.2292428C73.7984448 14.8843393 73.5159203 14.6750619 73.2375275 14.6746128L73.1257033 14.6746128 73.1257033 14.6472181 73.1257033 14.424917 73.1526489 14.424917C73.4010423 14.424917 73.6533878 14.449662 73.8976944 14.449662 74.0899512 14.449662 74.276774 14.424917 74.4958865 14.4343928L77.3413856 17.6386725 77.3413856 15.2566824C77.3395444 14.7411684 76.9946408 14.6791486 76.8051235 14.6746577L76.6349621 14.6746577 76.6349621 14.6473079 76.6349621 14.4250068 76.6641532 14.4250068C76.9690425 14.4250068 77.2676894 14.4497069 77.568986 14.4497069 77.8348492 14.4497069 78.0989609 14.4250068 78.3675186 14.4250068L78.3953174 14.4250068 78.3953174 14.4528057 78.3953174 14.6746577 78.3675186 14.6746577 78.2695265 14.6746577C78.0032142 14.6822923 77.7275608 14.7065433 77.7221268 15.4695526L77.7221268 18.4169509C77.7221268 18.6432939 77.7270219 18.8691428 77.7585483 19.0671929L77.7638925 19.0986294 77.7330398 19.0986294 77.7330398 19.0986294zM77.4870265 19.0419988L77.4870265 19.0419988 77.6989536 19.0419988C77.6707056 18.8475414 77.6657207 18.6319767 77.6657207 18.4168611L77.6657207 15.4694627C77.6657207 14.6907352 77.9922563 14.6202276 78.2697959 14.6179821L78.3398095 14.6179821 78.3398095 14.4810087C78.0843204 14.4828051 77.8283373 14.5061579 77.5692555 14.5061579 77.2746055 14.5061579 76.9848955 14.4828051 76.6916826 14.4810087L76.6916826 14.6179821 76.8052582 14.6179821C77.0060478 14.6202276 77.3967139 14.7087438 77.3967139 15.2565926L77.3896182 17.7041503 77.3774478 17.717668 77.3568344 17.7382813 74.4745546 14.4810087C74.28369 14.4810087 74.0945769 14.5062028 73.897919 14.5062028 73.6594056 14.5062028 73.4164462 14.48285 73.1806723 14.4810087L73.1806723 14.618027 73.2377071 14.618027C73.5417881 14.6202725 73.8547611 14.8497591 73.8547611 15.2292428L73.8547611 17.9574837C73.8547611 18.4752881 73.710198 18.8067189 73.2444435 18.8085152L73.1806723 18.8080212 73.1806723 18.9450395C73.4618046 18.9436923 73.7501224 18.9203394 74.0348475 18.9203394 74.3047525 18.9203394 74.5728611 18.9436923 74.8419128 18.9450395L74.8419128 18.8085152 74.7583365 18.8085152C74.2500529 18.8080212 74.1229596 18.5848668 74.1229596 18.0216591L74.1229596 15.2799454 77.4870265 19.0419988 77.4870265 19.0419988zM77.3890359 17.7811251L77.3890359 17.7811251 77.4644431 17.713768 77.3890359 17.7811251zM77.4083859 17.7540776L77.4083859 17.7540776 77.4083859 17.745699 77.3885074 17.7277919 77.4083859 17.7540776zM79.408292 18.0477065C79.3449698 18.2673131 79.2663785 18.4370703 79.2663785 18.5524872 79.2663785 18.7473937 79.5389781 18.7788302 79.751444 18.7788302L79.8237031 18.7788302 79.8237031 18.9741857C79.5645764 18.9602189 79.2987581 18.9485874 79.0396314 18.9485874 78.8056089 18.9485874 78.5734278 18.9603087 78.3412466 18.9741857L78.3412466 18.7788302 78.3780723 18.7788302C78.6318099 18.7788302 78.8464764 18.6301354 78.9421782 18.3575808L79.9795834 15.3854374C80.0630698 15.1456217 80.1802831 14.8218255 80.2180967 14.5816056 80.4255329 14.5110979 80.6842105 14.3817591 80.8085644 14.3036169 80.8269772 14.2969254 80.8400458 14.2901441 80.8598059 14.2901441 80.8791169 14.2901441 80.8911976 14.2901441 80.9042662 14.3103533 80.9239814 14.3615499 80.9442804 14.4203811 80.9635465 14.4720268L82.1545415 17.8599856C82.2322346 18.0863285 82.3095235 18.3256952 82.3948063 18.5206016 82.4724994 18.7020352 82.6090238 18.7788302 82.8218939 18.7788302L82.861459 18.7788302 82.861459 18.9741857C82.5695485 18.9602638 82.278087 18.9486323 81.9668655 18.9486323 81.6502099 18.9486323 81.3260095 18.9603087 80.9954321 18.9741857L80.9954321 18.7788302 81.0673768 18.7788302C81.2150835 18.7788302 81.4692703 18.753681 81.4692703 18.5915583 81.4692703 18.5075779 81.4103941 18.3328807 81.3381351 18.1249505L81.0866429 17.3736177 79.6163119 17.3736177 79.408292 18.0477065 79.408292 18.0477065zM80.3549803 15.1780013L80.3549803 15.1780013 80.3420015 15.1780013 79.7388694 17.0111995 80.950882 17.0111995 80.3549803 15.1780013z"/>
    <path fill="#FFF" d="M82.8586747 19.0016253C82.5672132 18.9899489 82.2762457 18.9755779 81.9668206 18.9755779 81.6510632 18.9755779 81.3268628 18.9899489 80.9962853 19.0016253L80.9675883 19.0034217 80.9675883 18.9737815 80.9675883 18.7510313 80.9953872 18.7510313 81.0658948 18.7510313C81.2167452 18.7510313 81.4399894 18.716002 81.4404385 18.5916032 81.4417408 18.5179071 81.3834036 18.3414584 81.3111446 18.1339773L81.0650415 17.4015064 79.635578 17.4015064 79.4352375 18.0557902C79.370613 18.2776422 79.2933241 18.4478485 79.2947163 18.5525321 79.2947163 18.7115111 79.5371368 18.7510313 79.751444 18.7510313L79.8501996 18.7510313 79.8501996 18.7788751 79.8501996 19.0034217 79.8215026 19.0016253C79.5623309 18.9899489 79.297321 18.9755779 79.0396314 18.9755779 78.8074502 18.9755779 78.5747302 18.9899489 78.3412466 19.0016253L78.3129089 19.0034217 78.3129089 18.9737815 78.3129089 18.7510313 78.3412466 18.7510313 78.3780723 18.7510313C78.6196395 18.7500882 78.8217314 18.6113633 78.9160859 18.3486438L79.9525929 15.3760963C80.035226 15.1358314 80.1519453 14.8129335 80.2094292 14.5556031 80.4129133 14.4850955 80.6728934 14.3557566 80.7986844 14.2766713 80.815705 14.2708331 80.8332645 14.2631985 80.8597161 14.2631985 80.8768266 14.2614022 80.9099696 14.265444 80.9306728 14.3009224 80.9499838 14.3517148 80.9688458 14.4105011 80.9904022 14.463045L82.1813973 17.8505995C82.2586862 18.0778407 82.3363793 18.3172073 82.4203148 18.5098683 82.4961667 18.6814219 82.6143231 18.7492349 82.8209059 18.7510313L82.8882699 18.7510313 82.8882699 18.7788751 82.8882699 19.0034217 82.8586747 19.0016253 82.8586747 19.0016253zM81.0232758 18.9445455L81.0232758 18.9445455C81.3434344 18.93242 81.6587427 18.9198454 81.9668206 18.9198454 82.2681172 18.9198454 82.5506417 18.93242 82.8326272 18.9436474L82.8317291 18.8084254 82.8209508 18.8084254C82.6017485 18.8089194 82.4486975 18.7226935 82.3682649 18.5318289 82.2829372 18.3351261 82.2057381 18.0948613 82.1284492 17.8689225L80.936511 14.4810087C80.9172 14.429363 80.8974849 14.3705318 80.8817666 14.3265207 80.8763326 14.318437 80.8768715 14.318437 80.8718416 14.318437L80.8597161 14.318437C80.8462882 14.318437 80.8390129 14.3229279 80.8232947 14.3274188 80.6971444 14.4069083 80.4375236 14.5362023 80.2458058 14.5860965 80.2057916 14.8313014 80.0881741 15.1541993 80.0046877 15.3944642L78.9677316 18.3674608C78.8693353 18.6485932 78.6430372 18.8089194 78.3780274 18.8084254L78.3685515 18.8084254 78.3685515 18.9436474C78.5913466 18.93242 78.8140519 18.9198454 79.0395416 18.9198454 79.2905846 18.9198454 79.5460737 18.93242 79.7953653 18.9436474L79.7953653 18.8084254 79.7513542 18.8084254C79.5407744 18.8057309 79.2452262 18.782872 79.2376366 18.5524872 79.2389389 18.4240466 79.3192817 18.2592294 79.3817506 18.0396228L79.4082471 18.0481107 79.3817506 18.0386797 79.5950698 17.3461781 81.105415 17.3461781 81.3649459 18.1159238C81.4363517 18.3243479 81.4951829 18.4963506 81.4951829 18.5915583 81.4857071 18.7905066 81.2140506 18.8043836 81.065805 18.8084254L81.023186 18.8084254 81.023186 18.9445455 81.0232758 18.9445455zM79.7002025 17.0386391L79.7002025 17.0386391 80.3212983 15.1497084 80.3410135 15.1497084 80.3549803 15.1497084 80.3549803 15.1780013 80.3482439 15.1793486 80.3549803 15.1780013 80.3549803 15.1497084 80.3752344 15.1497084 80.9873035 17.0386391 79.7002025 17.0386391zM79.7778956 16.9829067L79.7778956 16.9829067 80.9105535 16.9829067 80.3473457 15.2480598 79.7778956 16.9829067 79.7778956 16.9829067zM80.370473 15.2523838L80.370473 15.2523838 80.4179516 15.2343123 80.370473 15.2523838zM84.4932839 18.339168C84.4932839 18.5983396 84.6729212 18.6755387 84.8804471 18.7020352 85.1458612 18.7217953 85.4373226 18.7217953 85.7364636 18.6890115 86.0076709 18.6562727 86.2412443 18.5008864 86.3570205 18.339168 86.4603568 18.1963564 86.5187838 18.0149227 86.55781 17.8725602L86.745531 17.8725602C86.6745743 18.2417148 86.5838574 18.6054802 86.5057152 18.9741857 85.9371633 18.9741857 85.3659617 18.9485874 84.7968709 18.9485874 84.2261184 18.9485874 83.6571174 18.9741857 83.0872631 18.9741857L83.0872631 18.7787853 83.1761386 18.7787853C83.4106101 18.7787853 83.6638987 18.7473937 83.6638987 18.3454553L83.6638987 15.0167768C83.6638987 14.6790139 83.4105652 14.6471732 83.1761386 14.6471732L83.0872631 14.6471732 83.0872631 14.4527158C83.4294271 14.4527158 83.7666961 14.4783141 84.1093991 14.4783141 84.4407849 14.4783141 84.7641769 14.4527158 85.0946645 14.4527158L85.0946645 14.6471732 84.9315988 14.6471732C84.6864389 14.6471732 84.4932839 14.6543587 84.4932839 14.9965676L84.4932839 18.339168 84.4932839 18.339168z"/>
    <path fill="#FFF" d="M86.5057152 19.0016253C85.9349627 19.0016253 85.3651084 18.9755779 84.7969607 18.9755779 84.2265675 18.9755779 83.6566683 19.0016253 83.0859158 19.0016253L83.0584762 19.0016253 83.0584762 18.9737815 83.0584762 18.7510313 83.0859158 18.7510313 83.1761835 18.7510313C83.4110592 18.7456422 83.6329112 18.7294748 83.6356058 18.3455002L83.6356058 15.0155194C83.6328663 14.7007051 83.4123616 14.6791486 83.1761835 14.6746128L83.0584762 14.6746128 83.0584762 14.647263 83.0584762 14.4249619 83.0859158 14.4249619C83.4303702 14.4249619 83.7676392 14.449662 84.1098033 14.449662 84.4385395 14.449662 84.7619314 14.4249619 85.0946645 14.4249619L85.1212509 14.4249619 85.1212509 14.4528057 85.1212509 14.6746128 85.0946645 14.6746128 84.9321377 14.6746128C84.6810947 14.6817983 84.5248102 14.6701218 84.5198702 14.9966575L84.5198702 18.3392578C84.5216217 18.5804208 84.6797923 18.6455393 84.8818842 18.6738322 84.9963581 18.6819159 85.1162659 18.6868559 85.2411587 18.6868559 85.3996437 18.6868559 85.5644609 18.6792213 85.7315685 18.6612576 85.9955903 18.6303151 86.2228315 18.4780276 86.3342515 18.3235395 86.4339052 18.1852188 86.4914341 18.007378 86.5300112 17.8659136L86.5358943 17.8444021 86.5574059 17.8444021 86.7797519 17.8444021 86.7738688 17.8785331C86.7007115 18.249035 86.611791 18.6110041 86.5331997 18.9797095L86.5278555 19.0017151 86.50585 19.0017151 86.5057152 19.0017151 86.5057152 19.0016253zM86.4823624 18.9450395L86.4823624 18.9450395C86.5573609 18.5938487 86.6422845 18.2502475 86.7118939 17.8999549L86.5789174 17.8999549C86.538499 18.0409701 86.4810151 18.2147692 86.3791159 18.3562335 86.2582649 18.5241944 86.0184492 18.6822751 85.7377659 18.7168553 85.5680536 18.73437 85.4000479 18.7433518 85.2411138 18.7433518 85.1157719 18.7433518 84.9941126 18.7375136 84.8768544 18.729385 84.6662746 18.7060322 84.4618923 18.6162135 84.4628354 18.339168L84.4628354 14.9965676C84.4628354 14.636844 84.6904358 14.6184312 84.9320928 14.6184312L85.0659226 14.6184312 85.0659226 14.4810087C84.7466623 14.4828051 84.4322971 14.5065621 84.1097584 14.5065621 83.7743307 14.5065621 83.4464478 14.4828051 83.1141188 14.4810087L83.1141188 14.6184312 83.1761386 14.6184312C83.4074216 14.6184312 83.6903054 14.6588496 83.6903054 15.0154296L83.6903054 18.3454553C83.6903054 18.7644592 83.4087239 18.8080212 83.1761386 18.8080212L83.1141188 18.8080212 83.1141188 18.9449946C83.6741829 18.9445455 84.2342021 18.9202945 84.7969158 18.9202945 85.3596295 18.9202945 85.921984 18.9445455 86.4823624 18.9450395L86.4823624 18.9450395zM86.8064484 14.2685876C87.276462 14.2685876 87.6275794 14.6298215 87.6275794 15.0927201 87.6275794 15.5534555 87.2765161 15.9114448 86.8064484 15.9114448 86.3363265 15.9114448 85.9847223 15.5534555 85.9847223 15.0927201 85.9846682 14.6298756 86.3362724 14.2685876 86.8064484 14.2685876zM86.8064484 15.7584071L86.8064484 15.7584071C87.1736854 15.7584071 87.4561047 15.4447609 87.4561047 15.0927201 87.4561047 14.7385162 87.1780129 14.4221661 86.8064484 14.4221661 86.4369935 14.4221661 86.1545741 14.7385702 86.1545741 15.0927201 86.1545741 15.4447609 86.4369935 15.7584071 86.8064484 15.7584071zM86.3974515 15.5253355L86.3974515 15.5253355 86.3974515 15.4847778C86.4985512 15.4707178 86.5169429 15.4739624 86.5169429 15.4112332L86.5169429 14.8034085C86.5169429 14.718021 86.5077471 14.6888195 86.401238 14.6930915L86.401238 14.6514523 86.8215403 14.6514523C86.9665094 14.6514523 87.0989831 14.72013 87.0989831 14.8693823 87.0989831 14.9915962 87.0178436 15.0819047 86.9047893 15.1170547L87.0394808 15.3051883C87.1027696 15.3906299 87.1736313 15.4707178 87.2206922 15.4987837L87.2206922 15.5252814 87.0606311 15.5252814C86.9838192 15.5252814 86.9167439 15.3635914 86.7652295 15.1467429L86.6743534 15.1467429 86.6743534 15.4198314C86.6743534 15.4739083 86.6932859 15.4706637 86.7944938 15.4847237L86.7944938 15.5252814 86.3974515 15.5252814 86.3974515 15.5253355zM86.6743534 15.0927201L86.6743534 15.0927201 86.7712338 15.0927201C86.8772019 15.0927201 86.9269675 15.0121454 86.9269675 14.8829016 86.9269675 14.7520354 86.8501555 14.7060159 86.7658245 14.7060159L86.6743534 14.7060159 86.6743534 15.0927201 86.6743534 15.0927201z"/>
  </g>
</svg>
