<svg xmlns="http://www.w3.org/2000/svg" xmlns:xlink="http://www.w3.org/1999/xlink" width="113" height="22" viewBox="0 0 113 22">
  <defs>
    <path id="discover-logo-a" d="M0.0331875,9.338875 C0.0331875,9.338875 0.0331875,9.338875 0.0331875,9.3445 C0.0331875,14.46875 4.1899375,18.62575 9.3144375,18.62575 C14.444375,18.62575 18.60125,14.46875 18.60125,9.3445 C18.60125,9.338875 18.60125,9.338875 18.60125,9.338875 C18.60125,4.214375 14.444375,0.057625 9.3144375,0.057625 C4.1899375,0.057625 0.0331875,4.214375 0.0331875,9.338875"/>
  </defs>
  <g fill="none" fill-rule="evenodd" transform="matrix(1 0 0 -1 .373 20.727)">
    <g fill="#FFF" fill-rule="nonzero" transform="translate(.125 .5)">
      <path d="M8.9753125,4.8310625 C7.90575,3.86525 6.516375,3.443875 4.31689375,3.443875 L3.40331875,3.443875 L3.40331875,14.984125 L4.31689375,14.984125 C6.516375,14.984125 7.8510625,14.5905625 8.9753125,13.57275 C10.1525625,12.5244375 10.8608125,10.900125 10.8608125,9.22825 C10.8608125,7.553 10.1525625,5.8789375 8.9753125,4.8310625 L8.9753125,4.8310625 Z M4.99878125,17.9409375 L0.001953125,17.9409375 L0.001953125,0.4895 L4.9724125,0.4895 C7.6155,0.4895 9.5239375,1.1130625 11.19925,2.504125 C13.1899375,4.151625 14.3671875,6.63475 14.3671875,9.203125 C14.3671875,14.35325 10.5193125,17.9409375 4.99878125,17.9409375"/>
      <polygon points="15.934 .489 19.338 .489 19.338 17.941 15.934 17.941"/>
      <path d="M27.661125 11.244125C25.6184375 12 25.0185625 12.4985625 25.0185625 13.4414375 25.0185625 14.5405 26.0871875 15.37575 27.5544375 15.37575 28.5744375 15.37575 29.412625 14.9568125 30.2995625 13.962375L32.0805625 16.2946875C30.6169375 17.5749375 28.86575 18.2295 26.952375 18.2295 23.86475 18.2295 21.5095 16.0851875 21.5095 13.229 21.5095 10.8246875 22.6061875 9.59375 25.80325 8.443125 27.13575 7.973125 27.8139375 7.6599375 28.15625 7.44925 28.8364375 7.005125 29.177 6.3764375 29.177 5.6435625 29.177 4.2295 28.05275 3.181875 26.5339375 3.181875 24.910375 3.181875 23.6025625 3.993875 22.818875 5.5095L20.619625 3.3920625C22.188 1.089875 24.0715625.0695625 26.661625.0695625 30.19925.0695625 32.6806875 2.421625 32.6806875 5.8000625 32.6806875 8.57275 31.5334375 9.827875 27.661125 11.244125M33.754625 9.203125C33.754625 4.0735 37.7825.0959375 42.9660625.0959375 44.431375.0959375 45.68625.3840625 47.233875 1.1130625L47.233875 5.120125C45.8730625 3.7580625 44.66775 3.20875 43.12425 3.20875 39.6960625 3.20875 37.2626875 5.6943125 37.2626875 9.22825 37.2626875 12.578875 39.7729375 15.2219375 42.9660625 15.2219375 44.589625 15.2219375 45.818625 14.6425625 47.233875 13.2583125L47.233875 17.2634375C45.73975 18.0215 44.511 18.3354375 43.046375 18.3354375 37.8891875 18.3354375 33.754625 14.277375 33.754625 9.203125"/>
      <polyline points="74.224 6.219 69.571 17.941 65.852 17.941 73.257 .042 75.089 .042 82.629 17.941 78.939 17.941 74.224 6.219"/>
      <polyline points="84.168 .489 93.822 .489 93.822 3.444 87.569 3.444 87.569 8.155 93.591 8.155 93.591 11.111 87.569 11.111 87.569 14.984 93.822 14.984 93.822 17.941 84.168 17.941 84.168 .489"/>
      <path d="M100.470625 9.9065L99.47625 9.9065 99.47625 15.192125 100.524375 15.192125C102.644375 15.192125 103.796875 14.3039375 103.796875 12.6055 103.796875 10.8510625 102.644375 9.9065 100.470625 9.9065L100.470625 9.9065zM107.3 12.7888125C107.3 16.0559375 105.049375 17.9409375 101.12375 17.9409375L96.07625 17.9409375 96.07625.4895 99.47625.4895 99.47625 7.5 99.92 7.5 104.631875.4895 108.818125.4895 103.324375 7.8415625C105.888125 8.3628125 107.3 10.1166875 107.3 12.7888125M108.8275 17.0756875L108.765625 17.0756875 108.765625 17.4765625 108.83125 17.4765625C109.0125 17.4765625 109.10625 17.411375 109.10625 17.2793125 109.10625 17.1435625 109.01125 17.0756875 108.8275 17.0756875zM109.4725 17.2849375C109.4725 17.5908125 109.261875 17.7580625 108.891875 17.7580625L108.399375 17.7580625 108.399375 16.224125 108.765625 16.224125 108.765625 16.8190625 109.195 16.224125 109.641875 16.224125 109.1375 16.8566875C109.353125 16.9148125 109.4725 17.072 109.4725 17.2849375"/>
      <path d="M108.960625,15.89575 C108.374375,15.89575 107.895,16.3835625 107.895,16.9921875 C107.895,17.603 108.368125,18.0905625 108.960625,18.0905625 C109.54375,18.0905625 110.019375,17.5918125 110.019375,16.9921875 C110.019375,16.3886875 109.54375,15.89575 108.960625,15.89575 Z M108.965625,18.3313125 C108.220625,18.3313125 107.629375,17.7368125 107.629375,16.994125 C107.629375,16.2519375 108.2275,15.65675 108.965625,15.65675 C109.69125,15.65675 110.285625,16.2583125 110.285625,16.994125 C110.285625,17.7263125 109.69125,18.3313125 108.965625,18.3313125"/>
    </g>
    <use fill="#FFF" transform="translate(48.438 .313)" xlink:href="#discover-logo-a"/>
  </g>
</svg>
