<svg width="64" height="65" viewBox="0 0 64 65" fill="none" xmlns="http://www.w3.org/2000/svg">
<g clip-path="url(#clip0_2905_7815)">
<path d="M32 64.03C49.6731 64.03 64 49.7031 64 32.03C64 14.3569 49.6731 0.0300293 32 0.0300293C14.3269 0.0300293 0 14.3569 0 32.03C0 49.7031 14.3269 64.03 32 64.03Z" fill="#476E45"/>
<path d="M34.103 28.8117C28.8916 21.8632 16.5122 18.4437 15.9819 18.2974L14.647 17.9317L14.2996 19.2666C14.1533 19.7969 10.9533 32.2129 14.3545 40.2037C16.1465 44.3912 19.3648 47.5363 23.2048 48.8163C24.4482 49.2369 25.7282 49.438 26.9533 49.438C28.7819 49.438 30.5373 48.9992 32.0733 48.1032C34.6333 46.622 36.4619 43.9523 37.1202 40.7706C37.9248 36.8026 36.8276 32.4323 34.0848 28.7934L34.103 28.8117ZM34.4505 40.2403C34.0665 42.142 33.1156 43.7694 31.8173 44.9214L24.759 32.6883C24.375 32.03 23.5339 31.8106 22.8939 32.1946C22.2356 32.5786 22.0162 33.4197 22.4002 34.0597L29.4585 46.2929C27.8128 46.8414 25.9293 46.8414 24.1008 46.2197C20.9922 45.1774 18.3773 42.5992 16.8962 39.1249C14.4825 33.4563 15.9453 24.7157 16.6585 21.3512C19.9316 22.43 28.215 25.5203 31.927 30.4392C34.1945 33.4563 35.127 37.022 34.4688 40.222L34.4505 40.2403ZM49.6459 40.2037C47.8539 44.3912 44.6356 47.5363 40.7773 48.8163C39.5339 49.2369 38.2539 49.438 37.0288 49.438C36.407 49.438 35.7853 49.3649 35.1819 49.2552C37.5042 47.3169 39.1682 44.5374 39.8082 41.3374C40.7773 36.6014 39.4973 31.4266 36.279 27.166C35.639 26.3249 34.9076 25.5386 34.1396 24.7889C39.9545 20.5466 47.5979 18.4072 48.0002 18.2974L49.335 17.9317L49.6825 19.2666C49.8288 19.7969 53.0288 32.2129 49.6276 40.2037H49.6459Z" fill="white"/>
</g>
<defs>
<clipPath id="clip0_2905_7815">
<rect width="64" height="64" fill="white" transform="translate(0 0.0300293)"/>
</clipPath>
</defs>
</svg>
