<?xml version="1.0" encoding="utf-8"?>
<!-- Generator: Adobe Illustrator 15.0.0, SVG Export Plug-In . SVG Version: 6.00 Build 0)  -->
<!DOCTYPE svg PUBLIC "-//W3C//DTD SVG 1.1//EN" "http://www.w3.org/Graphics/SVG/1.1/DTD/svg11.dtd">
<svg version="1.1" 
	id="All_right_arrows" 
	xmlns="http://www.w3.org/2000/svg" 
	xmlns:xlink="http://www.w3.org/1999/xlink" 
	xmlns:layout="http://www.ultraq.net.nz/thymeleaf/layout"
        x="-0.4px"
        y="23px" 
        width="75px" 
        height="42px" 
        preserveAspectRatio="xMinYMin slice"
        viewBox="-0.4 23 105.5 81.6" 
        enable-background="new -0.4 23 105.5 81.6"
	xml:space="preserve">

	
	

	
	

	


	
	<g id="D_right">
	<rect x="0.423" y="24.132" fill="#FFFFFF" width="22" height="56.335"/>
	<polygon fill="#FFF200" points="78.824,24.339 22.423,24.339 22.423,80.262 78.824,80.262 104.534,52.299 	"/>
	<g>
		<path fill="#FFFFFF" d="M64.47,52.924c0,2.536-0.307,4.705-0.919,6.507c-0.612,1.803-1.491,3.273-2.637,4.413
			c-1.146,1.139-2.539,1.977-4.179,2.51c-1.64,0.535-3.592,0.803-5.856,0.803h-6.104c-0.435,0-0.8-0.139-1.097-0.418
			c-0.296-0.277-0.444-0.729-0.444-1.355V41.277c0-0.627,0.148-1.079,0.444-1.357c0.297-0.278,0.662-0.417,1.097-0.417h6.559
			c2.278,0,4.211,0.289,5.798,0.866s2.924,1.432,4.01,2.564c1.087,1.133,1.913,2.532,2.479,4.199S64.47,50.73,64.47,52.924z
			 M59.097,53.117c0-1.311-0.142-2.529-0.425-3.654s-0.738-2.102-1.363-2.928c-0.626-0.826-1.429-1.471-2.41-1.934
			s-2.269-0.695-3.862-0.695h-2.627v18.806h2.706c1.423,0,2.621-0.199,3.596-0.598c0.975-0.399,1.788-1.001,2.439-1.807
			c0.652-0.805,1.139-1.806,1.462-3.002C58.935,56.108,59.097,54.712,59.097,53.117z"/>
	</g>
	<path fill="none" stroke="#000000" stroke-width="0.526" stroke-miterlimit="10" d="M58.611,57.304
		c-0.322,1.196-0.81,2.199-1.461,3.004c-0.653,0.804-1.467,1.407-2.439,1.806c-0.975,0.398-2.175,0.598-3.597,0.598h-2.706V43.905
		h2.627c1.595,0,2.881,0.232,3.862,0.696c0.98,0.462,1.786,1.107,2.411,1.935c0.625,0.825,1.08,1.801,1.363,2.926
		c0.283,1.127,0.425,2.344,0.425,3.654C59.097,54.713,58.935,56.109,58.611,57.304z M63.62,47.132
		c-0.566-1.667-1.393-3.065-2.48-4.199c-1.086-1.133-2.424-1.987-4.01-2.564c-1.588-0.576-3.52-0.865-5.797-0.865h-6.559
		c-0.435,0-0.801,0.138-1.096,0.416c-0.298,0.278-0.445,0.731-0.445,1.356v24.107c0,0.625,0.147,1.078,0.445,1.355
		c0.295,0.279,0.661,0.416,1.096,0.416h6.104c2.266,0,4.218-0.268,5.858-0.801c1.638-0.533,3.032-1.369,4.177-2.51
		c1.146-1.14,2.024-2.61,2.638-4.413c0.613-1.802,0.919-3.972,0.919-6.508C64.47,50.73,64.187,48.8,63.62,47.132z"/>
	<g>
		<path d="M18.364,40.917c0.087,0.26,0.141,0.466,0.163,0.617c0.021,0.151-0.008,0.265-0.087,0.341
			c-0.079,0.076-0.221,0.123-0.422,0.141c-0.202,0.018-0.48,0.027-0.833,0.027c-0.368,0-0.655-0.005-0.86-0.016
			c-0.206-0.011-0.362-0.033-0.471-0.065c-0.108-0.033-0.185-0.078-0.228-0.135s-0.079-0.134-0.108-0.228l-0.941-2.814H9.318
			l-0.887,2.739c-0.029,0.101-0.067,0.186-0.114,0.254C8.271,41.847,8.195,41.9,8.091,41.94s-0.253,0.067-0.444,0.082
			c-0.19,0.014-0.441,0.021-0.752,0.021c-0.332,0-0.591-0.011-0.778-0.032c-0.188-0.022-0.318-0.074-0.39-0.157
			c-0.072-0.083-0.098-0.2-0.076-0.352c0.021-0.152,0.076-0.354,0.162-0.606l4.317-12.426c0.044-0.123,0.094-0.222,0.151-0.298
			s0.15-0.133,0.276-0.173c0.126-0.04,0.301-0.065,0.524-0.076s0.52-0.016,0.888-0.016c0.426,0,0.765,0.005,1.017,0.016
			c0.253,0.011,0.449,0.036,0.59,0.076c0.141,0.04,0.242,0.1,0.304,0.179c0.061,0.08,0.113,0.188,0.156,0.325L18.364,40.917z
			 M11.938,30.645h-0.011l-1.98,5.954h3.971L11.938,30.645z"/>
	</g>
	
		<line fill="none" stroke="#000000" stroke-width="2.218" stroke-linecap="round" stroke-linejoin="round" stroke-miterlimit="10" x1="12.095" y1="58.413" x2="12.095" y2="46.486"/>
	
		<polyline fill="none" stroke="#000000" stroke-width="2.218" stroke-linecap="round" stroke-linejoin="round" stroke-miterlimit="10" points="
		15.256,49.592 12.095,46.431 8.934,49.592 	"/>
	<g>
		<path d="M17.55,64.833c0,0.207-0.008,0.384-0.024,0.535c-0.017,0.148-0.039,0.27-0.069,0.357c-0.029,0.09-0.065,0.152-0.108,0.188
			s-0.094,0.053-0.153,0.053c-0.085,0-0.224-0.064-0.414-0.191c-0.191-0.129-0.445-0.268-0.761-0.418
			c-0.316-0.148-0.693-0.287-1.131-0.416c-0.438-0.128-0.947-0.192-1.526-0.192c-0.619,0-1.179,0.116-1.679,0.346
			c-0.501,0.232-0.929,0.561-1.284,0.984s-0.629,0.932-0.82,1.527c-0.19,0.596-0.286,1.252-0.286,1.971
			c0,0.791,0.098,1.488,0.291,2.09c0.194,0.602,0.466,1.105,0.815,1.512c0.349,0.406,0.769,0.713,1.259,0.918
			c0.491,0.207,1.032,0.311,1.625,0.311c0.29,0,0.576-0.035,0.859-0.107c0.283-0.07,0.547-0.178,0.79-0.32v-3.205h-2.42
			c-0.118,0-0.211-0.08-0.276-0.24s-0.099-0.434-0.099-0.818c0-0.199,0.008-0.365,0.024-0.502c0.017-0.135,0.041-0.244,0.074-0.326
			c0.033-0.08,0.072-0.141,0.118-0.182c0.047-0.039,0.1-0.059,0.158-0.059h4.316c0.105,0,0.199,0.02,0.281,0.059
			c0.083,0.041,0.155,0.1,0.218,0.178s0.11,0.172,0.143,0.283c0.033,0.109,0.05,0.236,0.05,0.379v5.502
			c0,0.215-0.034,0.4-0.104,0.561c-0.069,0.162-0.211,0.287-0.425,0.381c-0.214,0.092-0.479,0.188-0.795,0.287
			c-0.316,0.102-0.644,0.186-0.983,0.258c-0.339,0.07-0.681,0.123-1.026,0.16c-0.346,0.035-0.693,0.053-1.042,0.053
			c-1.021,0-1.935-0.158-2.741-0.475c-0.807-0.318-1.49-0.777-2.05-1.379s-0.987-1.336-1.284-2.201
			c-0.296-0.865-0.444-1.846-0.444-2.943c0-1.133,0.158-2.15,0.475-3.051c0.315-0.9,0.764-1.666,1.343-2.297
			c0.58-0.631,1.279-1.113,2.1-1.448c0.819-0.334,1.733-0.502,2.74-0.502c0.554,0,1.057,0.041,1.512,0.123
			c0.454,0.082,0.851,0.182,1.189,0.299c0.34,0.118,0.621,0.244,0.845,0.38c0.224,0.135,0.38,0.253,0.469,0.353
			c0.09,0.1,0.153,0.24,0.193,0.422C17.53,64.208,17.55,64.477,17.55,64.833z"/>
	</g>
	<path fill="none" stroke="#000000" stroke-width="0.825" stroke-linejoin="round" stroke-miterlimit="10" d="M78.269,23.926H0.836
		c-0.229,0-0.413,0.185-0.413,0.413v55.92c0,0.229,0.185,0.414,0.413,0.414h77.433c0.115,0,0.226-0.049,0.304-0.135l25.711-27.961
		c0.146-0.158,0.146-0.4,0-0.558L78.572,24.059C78.494,23.974,78.384,23.926,78.269,23.926z"/>
	</g>
	


	
	

	


	
</svg>
