<?xml version="1.0" encoding="utf-8"?>
<!-- Generator: Adobe Illustrator 15.0.0, SVG Export Plug-In . SVG Version: 6.00 Build 0)  -->
<!DOCTYPE svg PUBLIC "-//W3C//DTD SVG 1.1//EN" "http://www.w3.org/Graphics/SVG/1.1/DTD/svg11.dtd">
<svg version="1.1" 
	id="All_right_arrows" 
	xmlns="http://www.w3.org/2000/svg" 
	xmlns:xlink="http://www.w3.org/1999/xlink" 
	xmlns:layout="http://www.ultraq.net.nz/thymeleaf/layout"
        x="-0.4px"
        y="23px" 
        width="75px" 
        height="42px" 
        preserveAspectRatio="xMinYMin slice"
        viewBox="-0.4 23 105.5 81.6" 
        enable-background="new -0.4 23 105.5 81.6"
	xml:space="preserve">

	
	

	
	

	


	


	
	

	
	<g id="B_right">
	<rect x="0.424" y="24.132" fill="#FFFFFF" width="22" height="56.335"/>
	<polygon fill="#50B848" points="78.824,24.339 22.424,24.339 22.424,80.261 78.824,80.261 104.535,52.299 	"/>
	<g>
		<path fill="#FFFFFF" d="M60.767,58.865c0,0.983-0.125,1.874-0.375,2.671c-0.25,0.798-0.596,1.503-1.037,2.116
			c-0.441,0.613-0.968,1.14-1.58,1.582c-0.612,0.441-1.288,0.805-2.025,1.09s-1.524,0.494-2.36,0.63
			c-0.837,0.136-1.769,0.203-2.795,0.203h-6.796c-0.435,0-0.8-0.139-1.097-0.417c-0.296-0.277-0.444-0.729-0.444-1.357V41.277
			c0-0.627,0.148-1.079,0.444-1.357c0.297-0.278,0.662-0.417,1.097-0.417h6.42c1.567,0,2.895,0.143,3.98,0.428
			c1.087,0.285,2.002,0.716,2.746,1.293c0.744,0.577,1.313,1.307,1.709,2.19c0.395,0.883,0.593,1.923,0.593,3.12
			c0,0.669-0.079,1.3-0.237,1.891s-0.389,1.129-0.691,1.613c-0.303,0.484-0.675,0.912-1.116,1.282
			c-0.441,0.371-0.945,0.67-1.511,0.897c0.724,0.143,1.393,0.392,2.005,0.748c0.612,0.356,1.146,0.816,1.6,1.378
			c0.455,0.563,0.813,1.222,1.077,1.977C60.635,57.077,60.767,57.924,60.767,58.865z M54.051,47.218
			c0-0.556-0.079-1.054-0.237-1.496c-0.158-0.441-0.396-0.808-0.711-1.101c-0.316-0.292-0.715-0.516-1.195-0.673
			c-0.481-0.157-1.123-0.235-1.926-0.235h-2.628v7.181h2.904c0.75,0,1.35-0.096,1.798-0.289c0.447-0.192,0.819-0.456,1.115-0.791
			c0.297-0.335,0.518-0.727,0.662-1.175C53.978,48.19,54.051,47.717,54.051,47.218z M55.374,59.057c0-0.641-0.099-1.215-0.297-1.721
			c-0.197-0.505-0.487-0.929-0.869-1.271c-0.382-0.342-0.869-0.605-1.461-0.791c-0.593-0.185-1.363-0.278-2.312-0.278h-3.082v7.864
			h3.754c0.724,0,1.333-0.082,1.827-0.246c0.493-0.164,0.921-0.406,1.284-0.727c0.361-0.321,0.645-0.719,0.849-1.197
			S55.374,59.669,55.374,59.057z"/>
	</g>
	<path fill="none" stroke="#000000" stroke-width="0.526" stroke-miterlimit="10" d="M55.068,60.691
		c-0.205,0.477-0.488,0.875-0.85,1.197c-0.363,0.319-0.791,0.562-1.285,0.726c-0.494,0.165-1.102,0.245-1.826,0.245h-3.754v-7.862
		h3.082c0.949,0,1.719,0.092,2.311,0.275c0.592,0.187,1.08,0.451,1.463,0.792c0.381,0.341,0.67,0.766,0.869,1.271
		c0.195,0.505,0.295,1.079,0.295,1.72C55.373,59.669,55.271,60.214,55.068,60.691z M53.834,48.638
		c-0.146,0.449-0.367,0.84-0.664,1.175c-0.295,0.334-0.668,0.6-1.113,0.792c-0.449,0.193-1.049,0.289-1.799,0.289h-2.904v-7.182
		h2.627c0.803,0,1.445,0.079,1.926,0.236c0.48,0.155,0.879,0.381,1.195,0.672c0.316,0.293,0.555,0.659,0.713,1.101
		c0.156,0.442,0.236,0.941,0.236,1.497C54.051,47.717,53.977,48.189,53.834,48.638z M60.371,56.321
		c-0.262-0.755-0.623-1.414-1.076-1.976c-0.455-0.563-0.988-1.022-1.6-1.378c-0.613-0.357-1.283-0.606-2.004-0.749
		c0.564-0.228,1.068-0.527,1.51-0.897c0.441-0.37,0.813-0.799,1.115-1.283c0.303-0.483,0.533-1.021,0.691-1.613
		c0.158-0.593,0.236-1.223,0.236-1.893c0-1.197-0.195-2.237-0.592-3.119c-0.395-0.884-0.965-1.615-1.707-2.19
		c-0.744-0.578-1.66-1.009-2.748-1.293c-1.086-0.285-2.412-0.429-3.98-0.429h-6.418c-0.436,0-0.801,0.14-1.098,0.418
		s-0.443,0.731-0.443,1.357v24.107c0,0.625,0.146,1.078,0.443,1.355c0.297,0.279,0.662,0.416,1.098,0.416h6.795
		c1.027,0,1.957-0.067,2.795-0.203c0.836-0.133,1.623-0.344,2.361-0.631c0.736-0.283,1.412-0.646,2.023-1.089
		c0.613-0.442,1.141-0.967,1.58-1.58c0.441-0.613,0.787-1.32,1.039-2.116c0.248-0.799,0.373-1.689,0.373-2.672
		C60.766,57.923,60.635,57.076,60.371,56.321z"/>
	<g>
		<path d="M18.365,40.917c0.087,0.26,0.141,0.466,0.163,0.617c0.021,0.151-0.008,0.265-0.087,0.341
			c-0.079,0.076-0.221,0.123-0.422,0.141c-0.202,0.018-0.48,0.027-0.833,0.027c-0.368,0-0.655-0.005-0.86-0.016
			c-0.206-0.011-0.362-0.033-0.471-0.065c-0.108-0.033-0.185-0.078-0.228-0.135s-0.079-0.134-0.108-0.228l-0.941-2.814H9.319
			l-0.887,2.739c-0.029,0.101-0.067,0.186-0.114,0.254C8.271,41.847,8.196,41.9,8.092,41.94s-0.253,0.067-0.444,0.082
			c-0.19,0.014-0.441,0.021-0.752,0.021c-0.332,0-0.591-0.011-0.778-0.032c-0.188-0.022-0.318-0.074-0.39-0.157
			c-0.072-0.083-0.098-0.2-0.076-0.352c0.021-0.152,0.076-0.354,0.162-0.606l4.317-12.426c0.044-0.123,0.094-0.222,0.151-0.298
			s0.15-0.133,0.276-0.173c0.126-0.04,0.301-0.065,0.524-0.076s0.52-0.016,0.888-0.016c0.426,0,0.765,0.005,1.017,0.016
			c0.253,0.011,0.449,0.036,0.59,0.076c0.141,0.04,0.242,0.1,0.304,0.179c0.061,0.08,0.113,0.188,0.156,0.325L18.365,40.917z
			 M11.938,30.645h-0.011l-1.98,5.954h3.971L11.938,30.645z"/>
	</g>
	
		<line fill="none" stroke="#000000" stroke-width="2.218" stroke-linecap="round" stroke-linejoin="round" stroke-miterlimit="10" x1="12.096" y1="58.412" x2="12.096" y2="46.486"/>
	
		<polyline fill="none" stroke="#000000" stroke-width="2.218" stroke-linecap="round" stroke-linejoin="round" stroke-miterlimit="10" points="
		15.257,49.592 12.096,46.431 8.935,49.592 	"/>
	<path fill="none" stroke="#000000" stroke-width="0.825" stroke-linejoin="round" stroke-miterlimit="10" d="M78.27,23.926H0.837
		c-0.229,0-0.413,0.185-0.413,0.413v55.921c0,0.228,0.185,0.412,0.413,0.412H78.27c0.115,0,0.225-0.049,0.303-0.134l25.711-27.961
		c0.146-0.158,0.146-0.4,0-0.558L78.572,24.059C78.494,23.974,78.385,23.926,78.27,23.926z"/>
	<g>
		<path d="M17.551,64.833c0,0.207-0.008,0.384-0.024,0.535c-0.017,0.149-0.039,0.269-0.069,0.357
			c-0.029,0.09-0.065,0.152-0.108,0.188s-0.094,0.053-0.153,0.053c-0.085,0-0.224-0.063-0.414-0.191
			c-0.191-0.129-0.445-0.268-0.761-0.417c-0.316-0.149-0.693-0.288-1.131-0.417c-0.438-0.128-0.947-0.192-1.526-0.192
			c-0.619,0-1.179,0.116-1.679,0.347c-0.501,0.232-0.929,0.561-1.284,0.984s-0.629,0.933-0.82,1.527
			c-0.19,0.595-0.286,1.252-0.286,1.971c0,0.791,0.098,1.488,0.291,2.09c0.194,0.602,0.466,1.105,0.815,1.512
			c0.349,0.406,0.769,0.713,1.259,0.919c0.491,0.206,1.032,0.31,1.625,0.31c0.29,0,0.576-0.035,0.859-0.107
			c0.283-0.07,0.547-0.178,0.79-0.32v-3.205h-2.42c-0.118,0-0.211-0.08-0.276-0.24s-0.099-0.434-0.099-0.817
			c0-0.2,0.008-0.367,0.024-0.503c0.017-0.135,0.041-0.243,0.074-0.325s0.072-0.143,0.118-0.182c0.047-0.039,0.1-0.06,0.158-0.06
			h4.316c0.105,0,0.199,0.021,0.281,0.06c0.083,0.039,0.155,0.098,0.218,0.177c0.063,0.078,0.11,0.172,0.143,0.283
			c0.033,0.109,0.05,0.236,0.05,0.379v5.502c0,0.215-0.034,0.401-0.104,0.562s-0.211,0.286-0.425,0.38
			c-0.214,0.092-0.479,0.188-0.795,0.288c-0.316,0.1-0.644,0.185-0.983,0.257c-0.339,0.07-0.681,0.124-1.026,0.16
			c-0.346,0.035-0.693,0.053-1.042,0.053c-1.021,0-1.935-0.158-2.741-0.475c-0.807-0.317-1.49-0.777-2.05-1.379
			s-0.987-1.336-1.284-2.201c-0.296-0.865-0.444-1.847-0.444-2.943c0-1.133,0.158-2.15,0.475-3.051
			c0.315-0.901,0.764-1.667,1.343-2.297c0.58-0.63,1.279-1.113,2.1-1.448c0.819-0.335,1.733-0.502,2.74-0.502
			c0.554,0,1.057,0.042,1.512,0.123c0.454,0.082,0.851,0.182,1.189,0.299c0.34,0.118,0.621,0.244,0.845,0.379
			s0.38,0.253,0.469,0.353c0.09,0.1,0.153,0.24,0.193,0.422C17.531,64.208,17.551,64.478,17.551,64.833z"/>
	</g>
	</g>
	


	
</svg>
