<?xml version="1.0" encoding="utf-8"?>
<!-- Generator: Adobe Illustrator 15.0.0, SVG Export Plug-In . SVG Version: 6.00 Build 0)  -->
<!DOCTYPE svg PUBLIC "-//W3C//DTD SVG 1.1//EN" "http://www.w3.org/Graphics/SVG/1.1/DTD/svg11.dtd">
<svg version="1.1" 
	id="All_right_arrows" 
	xmlns="http://www.w3.org/2000/svg" 
	xmlns:xlink="http://www.w3.org/1999/xlink" 
	xmlns:layout="http://www.ultraq.net.nz/thymeleaf/layout"
        x="-0.4px"
        y="23px" 
        width="75px" 
        height="42px" 
        preserveAspectRatio="xMinYMin slice"
        viewBox="-0.4 23 105.5 81.6" 
        enable-background="new -0.4 23 105.5 81.6"
	xml:space="preserve">

	
	

	
	

	
	<g id="E_right">
	<rect x="0.424" y="24.132" fill="#FFFFFF" width="22" height="56.335"/>
	<polygon fill="#FDB913" points="78.824,24.339 22.424,24.339 22.424,80.261 78.824,80.261 104.535,52.299 	"/>
	<g>
		<path fill="#FFFFFF" d="M60.44,64.308c0,0.413-0.017,0.759-0.049,1.037c-0.033,0.277-0.083,0.502-0.148,0.674
			c-0.065,0.17-0.148,0.295-0.247,0.373s-0.207,0.117-0.325,0.117H46.83c-0.435,0-0.8-0.139-1.097-0.416
			c-0.296-0.277-0.444-0.73-0.444-1.357V40.63c0-0.627,0.148-1.08,0.444-1.357c0.297-0.278,0.662-0.417,1.097-0.417h12.762
			c0.118,0,0.224,0.036,0.315,0.107s0.171,0.195,0.237,0.374c0.065,0.178,0.115,0.405,0.148,0.684
			c0.032,0.277,0.049,0.63,0.049,1.058c0,0.399-0.017,0.737-0.049,1.016c-0.033,0.277-0.083,0.502-0.148,0.673
			c-0.066,0.171-0.146,0.296-0.237,0.374s-0.197,0.117-0.315,0.117h-9.127v6.753h7.724c0.119,0,0.228,0.04,0.326,0.118
			s0.181,0.199,0.247,0.363c0.065,0.163,0.115,0.384,0.148,0.662c0.032,0.277,0.049,0.616,0.049,1.015
			c0,0.414-0.017,0.756-0.049,1.026c-0.033,0.271-0.083,0.488-0.148,0.651c-0.066,0.164-0.148,0.281-0.247,0.353
			s-0.207,0.107-0.326,0.107h-7.724v7.8h9.206c0.118,0,0.227,0.039,0.325,0.117c0.099,0.079,0.182,0.203,0.247,0.374
			s0.115,0.396,0.148,0.674C60.424,63.549,60.44,63.895,60.44,64.308z"/>
	</g>
	<path fill="none" stroke="#000000" stroke-width="0.526" stroke-miterlimit="10" d="M60.391,63.272
		c-0.031-0.277-0.082-0.501-0.146-0.674c-0.068-0.171-0.148-0.296-0.248-0.374c-0.1-0.077-0.207-0.116-0.326-0.116h-9.205v-7.802
		h7.723c0.119,0,0.227-0.034,0.326-0.106c0.1-0.07,0.182-0.188,0.246-0.353c0.068-0.162,0.115-0.381,0.15-0.65
		c0.033-0.271,0.049-0.612,0.049-1.026c0-0.397-0.016-0.737-0.049-1.015c-0.035-0.278-0.082-0.499-0.15-0.663
		c-0.064-0.164-0.146-0.285-0.246-0.363c-0.1-0.079-0.207-0.118-0.326-0.118h-7.723v-6.754h9.125c0.119,0,0.225-0.037,0.318-0.115
		c0.09-0.079,0.17-0.204,0.236-0.374c0.064-0.171,0.115-0.396,0.146-0.675c0.033-0.277,0.051-0.614,0.051-1.015
		c0-0.427-0.018-0.779-0.051-1.058c-0.031-0.277-0.082-0.505-0.146-0.685c-0.066-0.178-0.146-0.302-0.236-0.372
		c-0.094-0.072-0.199-0.107-0.318-0.107H46.83c-0.436,0-0.801,0.138-1.096,0.416c-0.299,0.278-0.445,0.73-0.445,1.356v24.106
		c0,0.626,0.146,1.08,0.445,1.357c0.295,0.277,0.66,0.416,1.096,0.416h12.84c0.119,0,0.227-0.037,0.326-0.115
		c0.1-0.08,0.18-0.205,0.248-0.375c0.064-0.17,0.115-0.396,0.146-0.674c0.033-0.277,0.049-0.624,0.049-1.036
		C60.439,63.896,60.424,63.55,60.391,63.272z"/>
	<g>
		<path d="M18.365,40.917c0.087,0.26,0.141,0.465,0.163,0.617c0.021,0.151-0.008,0.265-0.087,0.341
			c-0.079,0.075-0.221,0.122-0.422,0.141c-0.202,0.018-0.48,0.027-0.833,0.027c-0.368,0-0.655-0.006-0.86-0.017
			c-0.206-0.011-0.362-0.032-0.471-0.065c-0.108-0.032-0.185-0.077-0.228-0.135s-0.079-0.134-0.108-0.228l-0.941-2.814H9.319
			l-0.887,2.738c-0.029,0.102-0.067,0.187-0.114,0.255s-0.122,0.123-0.227,0.162c-0.104,0.04-0.253,0.066-0.444,0.081
			c-0.19,0.015-0.441,0.022-0.752,0.022c-0.332,0-0.591-0.012-0.778-0.033c-0.188-0.021-0.318-0.073-0.39-0.156
			c-0.072-0.083-0.098-0.201-0.076-0.353s0.076-0.354,0.162-0.605l4.317-12.427c0.044-0.123,0.094-0.222,0.151-0.298
			s0.15-0.134,0.276-0.173c0.126-0.04,0.301-0.065,0.524-0.076s0.52-0.017,0.888-0.017c0.426,0,0.765,0.006,1.017,0.017
			c0.253,0.011,0.449,0.036,0.59,0.076c0.141,0.039,0.242,0.099,0.304,0.179c0.061,0.079,0.113,0.188,0.156,0.324L18.365,40.917z
			 M11.938,30.645h-0.011l-1.98,5.953h3.971L11.938,30.645z"/>
	</g>
	
		<line fill="none" stroke="#000000" stroke-width="2.218" stroke-linecap="round" stroke-linejoin="round" stroke-miterlimit="10" x1="12.096" y1="58.413" x2="12.096" y2="46.486"/>
	
		<polyline fill="none" stroke="#000000" stroke-width="2.218" stroke-linecap="round" stroke-linejoin="round" stroke-miterlimit="10" points="
		15.257,49.592 12.096,46.431 8.935,49.592 	"/>
	<g>
		<path d="M17.551,64.833c0,0.207-0.008,0.384-0.024,0.535c-0.017,0.148-0.039,0.27-0.069,0.357
			c-0.029,0.09-0.065,0.152-0.108,0.188s-0.094,0.053-0.153,0.053c-0.085,0-0.224-0.064-0.414-0.191
			c-0.191-0.129-0.445-0.268-0.761-0.418c-0.316-0.148-0.693-0.287-1.131-0.416c-0.438-0.128-0.947-0.192-1.526-0.192
			c-0.619,0-1.179,0.116-1.679,0.346c-0.501,0.232-0.929,0.561-1.284,0.984s-0.629,0.932-0.82,1.527
			c-0.19,0.596-0.286,1.252-0.286,1.971c0,0.791,0.098,1.488,0.291,2.09c0.194,0.602,0.466,1.105,0.815,1.512
			c0.349,0.406,0.769,0.713,1.259,0.918c0.491,0.207,1.032,0.311,1.625,0.311c0.29,0,0.576-0.035,0.859-0.107
			c0.283-0.07,0.547-0.178,0.79-0.32v-3.205h-2.42c-0.118,0-0.211-0.08-0.276-0.24s-0.099-0.434-0.099-0.818
			c0-0.199,0.008-0.365,0.024-0.502c0.017-0.135,0.041-0.244,0.074-0.326c0.033-0.08,0.072-0.141,0.118-0.182
			c0.047-0.039,0.1-0.059,0.158-0.059h4.316c0.105,0,0.199,0.02,0.281,0.059c0.083,0.041,0.155,0.1,0.218,0.178
			s0.11,0.172,0.143,0.283c0.033,0.109,0.05,0.236,0.05,0.379v5.502c0,0.215-0.034,0.4-0.104,0.561
			c-0.069,0.162-0.211,0.287-0.425,0.381c-0.214,0.092-0.479,0.188-0.795,0.287c-0.316,0.102-0.644,0.186-0.983,0.258
			c-0.339,0.07-0.681,0.123-1.026,0.16c-0.346,0.035-0.693,0.053-1.042,0.053c-1.021,0-1.935-0.158-2.741-0.475
			c-0.807-0.318-1.49-0.777-2.05-1.379s-0.987-1.336-1.284-2.201c-0.296-0.865-0.444-1.846-0.444-2.943
			c0-1.133,0.158-2.15,0.475-3.051c0.315-0.9,0.764-1.666,1.343-2.297c0.58-0.631,1.279-1.113,2.1-1.448
			c0.819-0.334,1.733-0.502,2.74-0.502c0.554,0,1.057,0.041,1.512,0.123c0.454,0.082,0.851,0.182,1.189,0.299
			c0.34,0.118,0.621,0.244,0.845,0.38c0.224,0.135,0.38,0.253,0.469,0.353c0.09,0.1,0.153,0.24,0.193,0.422
			C17.531,64.208,17.551,64.477,17.551,64.833z"/>
	</g>
	<path fill="none" stroke="#000000" stroke-width="0.825" stroke-linejoin="round" stroke-miterlimit="10" d="M78.27,23.926H0.837
		c-0.229,0-0.413,0.185-0.413,0.413v55.921c0,0.227,0.185,0.412,0.413,0.412H78.27c0.115,0,0.225-0.049,0.303-0.133l25.711-27.961
		c0.146-0.158,0.146-0.4,0-0.559L78.572,24.059C78.494,23.974,78.385,23.926,78.27,23.926z"/>
	</g>
	


	


	
	

	


	
</svg>
