<?xml version="1.0" encoding="utf-8"?>
<!-- Generator: Adobe Illustrator 15.0.0, SVG Export Plug-In . SVG Version: 6.00 Build 0)  -->
<!DOCTYPE svg PUBLIC "-//W3C//DTD SVG 1.1//EN" "http://www.w3.org/Graphics/SVG/1.1/DTD/svg11.dtd">
<svg version="1.1" 
	id="All_right_arrows" 
	xmlns="http://www.w3.org/2000/svg" 
	xmlns:xlink="http://www.w3.org/1999/xlink" 
	xmlns:layout="http://www.ultraq.net.nz/thymeleaf/layout"
        x="-0.4px"
        y="23px" 
        width="75px" 
        height="42px" 
        preserveAspectRatio="xMinYMin slice"
        viewBox="-0.4 23 105.5 81.6" 
        enable-background="new -0.4 23 105.5 81.6"
	xml:space="preserve">

	
	

	
	

	


	


	
	

	


	
	<g id="A_right">
	<rect x="0.424" y="23.926" fill="#FFFFFF" width="22" height="56.337"/>
	<polygon fill="#00A651" points="78.825,24.339 22.424,24.339 22.424,80.264 78.825,80.264 104.536,52.299 	"/>
	<g>
		<path fill="#FFFFFF" d="M61.953,64.575c0.158,0.513,0.257,0.919,0.297,1.219c0.039,0.299-0.014,0.523-0.158,0.672
			c-0.146,0.15-0.402,0.242-0.771,0.278c-0.369,0.036-0.876,0.054-1.521,0.054c-0.671,0-1.194-0.011-1.57-0.032
			c-0.375-0.021-0.661-0.063-0.859-0.128c-0.197-0.064-0.336-0.153-0.414-0.268c-0.079-0.113-0.146-0.264-0.198-0.449l-1.719-5.556
			h-9.601l-1.619,5.407c-0.053,0.199-0.122,0.366-0.208,0.502c-0.086,0.135-0.224,0.242-0.415,0.32
			c-0.19,0.078-0.461,0.131-0.81,0.16c-0.349,0.028-0.807,0.043-1.373,0.043c-0.605,0-1.08-0.021-1.422-0.064
			c-0.343-0.043-0.58-0.146-0.711-0.31c-0.132-0.163-0.179-0.396-0.139-0.694c0.039-0.299,0.139-0.698,0.296-1.197L46.921,40
			c0.078-0.242,0.171-0.438,0.276-0.588c0.104-0.149,0.272-0.263,0.504-0.342c0.229-0.078,0.549-0.128,0.958-0.15
			c0.407-0.021,0.948-0.032,1.619-0.032c0.777,0,1.396,0.011,1.857,0.032c0.461,0.021,0.819,0.072,1.076,0.15
			c0.257,0.079,0.441,0.196,0.554,0.353c0.111,0.157,0.207,0.371,0.286,0.641L61.953,64.575z M50.22,44.295h-0.021l-3.614,11.753
			h7.249L50.22,44.295z"/>
	</g>
	<path fill="none" stroke="#000000" stroke-width="0.526" stroke-miterlimit="10" d="M53.835,56.049h-7.25L50.2,44.296h0.02
		L53.835,56.049z M54.052,40.063c-0.078-0.271-0.174-0.483-0.287-0.641c-0.111-0.157-0.295-0.273-0.553-0.352
		c-0.256-0.079-0.613-0.129-1.076-0.149c-0.461-0.022-1.08-0.033-1.855-0.033c-0.672,0-1.213,0.011-1.621,0.033
		c-0.408,0.02-0.729,0.07-0.959,0.149c-0.23,0.079-0.398,0.192-0.504,0.341c-0.105,0.151-0.195,0.346-0.275,0.588l-7.884,24.534
		c-0.158,0.498-0.256,0.896-0.295,1.197c-0.041,0.297,0.006,0.529,0.137,0.693c0.133,0.164,0.369,0.268,0.713,0.311
		c0.342,0.041,0.814,0.064,1.422,0.064c0.564,0,1.024-0.016,1.372-0.045c0.35-0.027,0.619-0.08,0.813-0.16
		c0.189-0.078,0.326-0.184,0.414-0.318c0.084-0.137,0.154-0.305,0.207-0.504l1.619-5.408h9.602l1.719,5.556
		c0.053,0.188,0.117,0.336,0.197,0.449c0.08,0.115,0.217,0.203,0.416,0.27c0.195,0.063,0.482,0.105,0.857,0.127
		c0.377,0.021,0.9,0.033,1.572,0.033c0.645,0,1.15-0.02,1.52-0.055s0.627-0.127,0.771-0.279c0.145-0.148,0.197-0.371,0.158-0.672
		c-0.041-0.299-0.141-0.703-0.297-1.219L54.052,40.063z"/>
	<path fill="none" stroke="#000000" stroke-width="0.825" stroke-linejoin="round" stroke-miterlimit="10" d="M78.271,23.926H0.837
		c-0.229,0-0.413,0.185-0.413,0.413v55.922c0,0.229,0.185,0.414,0.413,0.414h77.434c0.115,0,0.225-0.049,0.303-0.135l25.711-27.962
		c0.146-0.158,0.146-0.4,0-0.559L78.573,24.06C78.495,23.975,78.386,23.926,78.271,23.926z"/>
	<g>
		<path d="M18.365,40.917c0.087,0.26,0.141,0.466,0.163,0.617c0.021,0.151-0.008,0.265-0.087,0.341
			c-0.079,0.076-0.221,0.123-0.422,0.141c-0.202,0.018-0.48,0.027-0.833,0.027c-0.368,0-0.655-0.005-0.86-0.016
			c-0.206-0.011-0.362-0.033-0.471-0.065c-0.108-0.033-0.185-0.078-0.228-0.135s-0.079-0.134-0.108-0.228l-0.941-2.814H9.319
			l-0.887,2.739c-0.029,0.101-0.067,0.186-0.114,0.254c-0.047,0.069-0.122,0.123-0.227,0.162s-0.253,0.067-0.444,0.082
			c-0.19,0.014-0.441,0.021-0.752,0.021c-0.332,0-0.591-0.011-0.778-0.032c-0.188-0.022-0.318-0.074-0.39-0.157
			c-0.072-0.083-0.098-0.2-0.076-0.352c0.021-0.152,0.076-0.354,0.162-0.606l4.317-12.426c0.044-0.123,0.094-0.222,0.151-0.298
			s0.15-0.133,0.276-0.173c0.126-0.04,0.301-0.065,0.524-0.076s0.52-0.016,0.888-0.016c0.426,0,0.765,0.005,1.017,0.016
			c0.253,0.011,0.449,0.036,0.59,0.076c0.141,0.04,0.242,0.1,0.304,0.179c0.061,0.08,0.113,0.188,0.156,0.325L18.365,40.917z
			 M11.938,30.645h-0.011l-1.98,5.954h3.971L11.938,30.645z"/>
	</g>
	
		<line fill="none" stroke="#000000" stroke-width="2.218" stroke-linecap="round" stroke-linejoin="round" stroke-miterlimit="10" x1="12.096" y1="58.413" x2="12.096" y2="46.487"/>
	
		<polyline fill="none" stroke="#000000" stroke-width="2.218" stroke-linecap="round" stroke-linejoin="round" stroke-miterlimit="10" points="
		15.257,49.592 12.096,46.432 8.935,49.592 	"/>
	<g>
		<path d="M17.551,64.834c0,0.207-0.008,0.385-0.024,0.534c-0.017,0.15-0.039,0.27-0.069,0.357c-0.029,0.09-0.065,0.152-0.108,0.188
			c-0.043,0.036-0.094,0.054-0.153,0.054c-0.085,0-0.224-0.063-0.414-0.192c-0.191-0.129-0.445-0.268-0.761-0.416
			c-0.316-0.15-0.693-0.289-1.131-0.418c-0.438-0.128-0.947-0.192-1.526-0.192c-0.619,0-1.179,0.116-1.679,0.347
			c-0.501,0.231-0.929,0.56-1.284,0.983s-0.629,0.934-0.82,1.527c-0.19,0.596-0.286,1.252-0.286,1.972
			c0,0.79,0.098,1.487,0.291,2.089c0.194,0.602,0.466,1.105,0.815,1.512c0.349,0.406,0.769,0.713,1.259,0.92
			c0.491,0.206,1.032,0.309,1.625,0.309c0.29,0,0.576-0.035,0.859-0.106s0.547-0.178,0.79-0.32v-3.206h-2.42
			c-0.118,0-0.211-0.08-0.276-0.24s-0.099-0.433-0.099-0.816c0-0.2,0.008-0.367,0.024-0.503s0.041-0.243,0.074-0.325
			s0.072-0.143,0.118-0.182c0.047-0.039,0.1-0.06,0.158-0.06h4.316c0.105,0,0.199,0.021,0.281,0.06
			c0.083,0.039,0.155,0.098,0.218,0.176s0.11,0.173,0.143,0.283c0.033,0.11,0.05,0.236,0.05,0.379v5.503
			c0,0.214-0.034,0.401-0.104,0.562s-0.211,0.286-0.425,0.379s-0.479,0.188-0.795,0.289c-0.316,0.1-0.644,0.185-0.983,0.256
			c-0.339,0.07-0.681,0.125-1.026,0.16s-0.693,0.053-1.042,0.053c-1.021,0-1.935-0.158-2.741-0.475s-1.49-0.776-2.05-1.379
			c-0.56-0.602-0.987-1.336-1.284-2.201c-0.296-0.865-0.444-1.846-0.444-2.943c0-1.133,0.158-2.149,0.475-3.051
			c0.315-0.9,0.764-1.666,1.343-2.297c0.58-0.63,1.279-1.113,2.1-1.448c0.819-0.335,1.733-0.502,2.74-0.502
			c0.554,0,1.057,0.042,1.512,0.123c0.454,0.082,0.851,0.182,1.189,0.299c0.34,0.118,0.621,0.244,0.845,0.379
			s0.38,0.253,0.469,0.353c0.09,0.1,0.153,0.24,0.193,0.422C17.531,64.209,17.551,64.478,17.551,64.834z"/>
	</g>
	</g>
	
</svg>
