<?xml version="1.0" encoding="utf-8"?>
<!-- Generator: Adobe Illustrator 15.0.0, SVG Export Plug-In . SVG Version: 6.00 Build 0)  -->
<!DOCTYPE svg PUBLIC "-//W3C//DTD SVG 1.1//EN" "http://www.w3.org/Graphics/SVG/1.1/DTD/svg11.dtd">
<svg version="1.1" 
	id="All_right_arrows" 
	xmlns="http://www.w3.org/2000/svg" 
	xmlns:xlink="http://www.w3.org/1999/xlink" 
	xmlns:layout="http://www.ultraq.net.nz/thymeleaf/layout"
        x="-0.4px"
        y="23px" 
        width="75px" 
        height="42px" 
        preserveAspectRatio="xMinYMin slice"
        viewBox="-0.4 23 105.5 81.6" 
        enable-background="new -0.4 23 105.5 81.6"
	xml:space="preserve">

	
	

	
	

	


	


	
	<g id="C_right">
	<rect x="0.424" y="24.282" fill="#FFFFFF" width="22" height="56.335"/>
	<polygon fill="#BFD730" points="78.824,24.339 22.424,24.339 22.424,80.261 78.824,80.261 104.535,52.299 	"/>
	<g>
		<path fill="#FFFFFF" d="M60.15,62.969c0,0.356-0.01,0.659-0.03,0.908c-0.02,0.25-0.049,0.463-0.089,0.641
			c-0.039,0.178-0.092,0.331-0.158,0.459c-0.065,0.128-0.171,0.274-0.315,0.438c-0.146,0.164-0.425,0.375-0.84,0.631
			s-0.922,0.502-1.521,0.737c-0.6,0.235-1.284,0.431-2.055,0.588c-0.771,0.156-1.604,0.235-2.499,0.235
			c-1.752,0-3.332-0.293-4.741-0.877s-2.607-1.456-3.596-2.618c-0.987-1.161-1.745-2.61-2.271-4.349s-0.79-3.761-0.79-6.069
			c0-2.351,0.29-4.438,0.869-6.261s1.39-3.355,2.43-4.595s2.288-2.18,3.743-2.821s3.059-0.962,4.811-0.962
			c0.711,0,1.396,0.064,2.055,0.192c0.658,0.128,1.268,0.296,1.827,0.502s1.063,0.445,1.511,0.716
			c0.448,0.271,0.761,0.502,0.938,0.694s0.3,0.353,0.366,0.481c0.065,0.128,0.118,0.292,0.157,0.492
			c0.04,0.2,0.069,0.435,0.089,0.705c0.021,0.271,0.03,0.605,0.03,1.004c0,0.427-0.014,0.791-0.04,1.09s-0.072,0.542-0.138,0.727
			c-0.066,0.186-0.146,0.321-0.237,0.406c-0.093,0.085-0.197,0.128-0.316,0.128c-0.197,0-0.447-0.125-0.75-0.374
			c-0.304-0.249-0.695-0.527-1.176-0.833c-0.48-0.306-1.054-0.584-1.719-0.833c-0.665-0.25-1.459-0.374-2.38-0.374
			c-1.015,0-1.92,0.224-2.717,0.673s-1.475,1.09-2.034,1.923c-0.561,0.833-0.985,1.842-1.274,3.024
			c-0.29,1.183-0.435,2.515-0.435,3.997c0,1.624,0.154,3.031,0.464,4.22c0.31,1.19,0.751,2.169,1.324,2.938
			c0.572,0.77,1.264,1.343,2.074,1.72c0.81,0.378,1.722,0.566,2.735,0.566c0.922,0,1.719-0.118,2.391-0.353s1.247-0.495,1.729-0.78
			c0.48-0.285,0.876-0.542,1.186-0.77c0.309-0.228,0.549-0.342,0.721-0.342c0.132,0,0.237,0.029,0.316,0.085
			c0.078,0.057,0.145,0.171,0.197,0.342s0.092,0.41,0.118,0.716C60.137,62.046,60.15,62.456,60.15,62.969z"/>
	</g>
	<path fill="none" stroke="#000000" stroke-width="0.526" stroke-miterlimit="10" d="M60.109,61.739
		c-0.025-0.306-0.066-0.545-0.119-0.715c-0.053-0.171-0.117-0.285-0.195-0.341c-0.08-0.057-0.186-0.085-0.316-0.085
		c-0.172,0-0.412,0.114-0.721,0.341c-0.311,0.228-0.705,0.484-1.186,0.768c-0.482,0.287-1.057,0.545-1.729,0.781
		c-0.672,0.234-1.469,0.353-2.391,0.353c-1.014,0-1.926-0.188-2.736-0.567c-0.811-0.376-1.502-0.95-2.074-1.72
		c-0.572-0.77-1.014-1.749-1.322-2.939c-0.311-1.188-0.467-2.595-0.467-4.219c0-1.481,0.146-2.814,0.436-3.998
		c0.289-1.182,0.715-2.19,1.275-3.022c0.561-0.834,1.236-1.475,2.035-1.924c0.797-0.449,1.701-0.674,2.717-0.674
		c0.92,0,1.715,0.125,2.377,0.374c0.666,0.25,1.238,0.527,1.721,0.834c0.48,0.306,0.871,0.584,1.176,0.833
		c0.303,0.25,0.551,0.375,0.75,0.375c0.119,0,0.225-0.044,0.314-0.129c0.094-0.085,0.172-0.221,0.24-0.407
		c0.064-0.184,0.111-0.427,0.137-0.727c0.025-0.298,0.039-0.661,0.039-1.09c0-0.398-0.008-0.733-0.029-1.004
		c-0.02-0.269-0.051-0.506-0.088-0.705c-0.041-0.199-0.094-0.363-0.158-0.493c-0.066-0.127-0.188-0.287-0.367-0.479
		c-0.178-0.193-0.49-0.425-0.938-0.696c-0.447-0.27-0.951-0.508-1.512-0.716c-0.561-0.206-1.168-0.374-1.826-0.501
		c-0.66-0.129-1.344-0.193-2.055-0.193c-1.752,0-3.355,0.32-4.811,0.961s-2.703,1.582-3.742,2.821
		c-1.043,1.241-1.852,2.772-2.43,4.595c-0.58,1.823-0.871,3.911-0.871,6.261c0,2.309,0.264,4.331,0.789,6.071
		c0.529,1.737,1.285,3.186,2.275,4.348c0.986,1.162,2.184,2.033,3.594,2.618c1.408,0.584,2.99,0.877,4.742,0.877
		c0.893,0,1.727-0.079,2.498-0.236c0.77-0.158,1.453-0.353,2.055-0.586c0.6-0.236,1.105-0.482,1.521-0.738
		c0.414-0.256,0.693-0.466,0.84-0.63c0.143-0.164,0.248-0.312,0.314-0.44c0.064-0.127,0.117-0.28,0.158-0.457
		c0.039-0.179,0.068-0.392,0.09-0.641c0.02-0.25,0.029-0.554,0.029-0.908C60.15,62.455,60.137,62.046,60.109,61.739z"/>
	<g>
		<path d="M18.365,40.917c0.087,0.26,0.141,0.466,0.163,0.617c0.021,0.151-0.008,0.265-0.087,0.341
			c-0.079,0.076-0.221,0.123-0.422,0.141c-0.202,0.018-0.48,0.027-0.833,0.027c-0.368,0-0.655-0.005-0.86-0.016
			c-0.206-0.011-0.362-0.033-0.471-0.065c-0.108-0.033-0.185-0.078-0.228-0.135s-0.079-0.134-0.108-0.228l-0.941-2.814H9.319
			l-0.887,2.739c-0.029,0.101-0.067,0.186-0.114,0.254c-0.047,0.069-0.122,0.123-0.227,0.162s-0.253,0.067-0.444,0.082
			c-0.19,0.014-0.441,0.021-0.752,0.021c-0.332,0-0.591-0.011-0.778-0.032c-0.188-0.022-0.318-0.074-0.39-0.157
			c-0.072-0.083-0.098-0.2-0.076-0.352c0.021-0.152,0.076-0.354,0.162-0.606l4.317-12.426c0.044-0.123,0.094-0.222,0.151-0.298
			s0.15-0.133,0.276-0.173c0.126-0.04,0.301-0.065,0.524-0.076s0.52-0.016,0.888-0.016c0.426,0,0.765,0.005,1.017,0.016
			c0.253,0.011,0.449,0.036,0.59,0.076c0.141,0.04,0.242,0.1,0.304,0.179c0.061,0.08,0.113,0.188,0.156,0.325L18.365,40.917z
			 M11.938,30.645h-0.011l-1.98,5.954h3.971L11.938,30.645z"/>
	</g>
	
		<line fill="none" stroke="#000000" stroke-width="2.218" stroke-linecap="round" stroke-linejoin="round" stroke-miterlimit="10" x1="12.096" y1="58.413" x2="12.096" y2="46.486"/>
	
		<polyline fill="none" stroke="#000000" stroke-width="2.218" stroke-linecap="round" stroke-linejoin="round" stroke-miterlimit="10" points="
		15.257,49.592 12.096,46.432 8.935,49.592 	"/>
	<g>
		<path d="M17.551,64.834c0,0.207-0.008,0.385-0.024,0.534c-0.017,0.15-0.039,0.27-0.069,0.357c-0.029,0.09-0.065,0.152-0.108,0.188
			c-0.043,0.036-0.094,0.054-0.153,0.054c-0.085,0-0.224-0.063-0.414-0.192c-0.191-0.129-0.445-0.268-0.761-0.416
			c-0.316-0.15-0.693-0.289-1.131-0.418c-0.438-0.128-0.947-0.192-1.526-0.192c-0.619,0-1.179,0.116-1.679,0.347
			c-0.501,0.231-0.929,0.56-1.284,0.983s-0.629,0.934-0.82,1.527c-0.19,0.596-0.286,1.252-0.286,1.972
			c0,0.79,0.098,1.487,0.291,2.089c0.194,0.602,0.466,1.105,0.815,1.512c0.349,0.406,0.769,0.713,1.259,0.92
			c0.491,0.206,1.032,0.309,1.625,0.309c0.29,0,0.576-0.035,0.859-0.106s0.547-0.178,0.79-0.32v-3.206h-2.42
			c-0.118,0-0.211-0.08-0.276-0.24s-0.099-0.433-0.099-0.816c0-0.2,0.008-0.367,0.024-0.503s0.041-0.243,0.074-0.325
			s0.072-0.143,0.118-0.182c0.047-0.039,0.1-0.06,0.158-0.06h4.316c0.105,0,0.199,0.021,0.281,0.06
			c0.083,0.039,0.155,0.098,0.218,0.176s0.11,0.173,0.143,0.283c0.033,0.11,0.05,0.236,0.05,0.379v5.503
			c0,0.214-0.034,0.401-0.104,0.562s-0.211,0.286-0.425,0.379s-0.479,0.188-0.795,0.289c-0.316,0.1-0.644,0.185-0.983,0.256
			c-0.339,0.07-0.681,0.125-1.026,0.16s-0.693,0.053-1.042,0.053c-1.021,0-1.935-0.158-2.741-0.475s-1.49-0.776-2.05-1.379
			c-0.56-0.602-0.987-1.336-1.284-2.201c-0.296-0.865-0.444-1.846-0.444-2.943c0-1.133,0.158-2.149,0.475-3.051
			c0.315-0.9,0.764-1.666,1.343-2.297c0.58-0.63,1.279-1.113,2.1-1.448c0.819-0.335,1.733-0.502,2.74-0.502
			c0.554,0,1.057,0.042,1.512,0.123c0.454,0.082,0.851,0.182,1.189,0.299c0.34,0.118,0.621,0.244,0.845,0.379
			s0.38,0.253,0.469,0.353c0.09,0.1,0.153,0.24,0.193,0.422C17.531,64.209,17.551,64.478,17.551,64.834z"/>
	</g>
	<path fill="none" stroke="#000000" stroke-width="0.825" stroke-linejoin="round" stroke-miterlimit="10" d="M78.27,23.926H0.837
		c-0.229,0-0.413,0.185-0.413,0.413v55.921c0,0.228,0.185,0.412,0.413,0.412H78.27c0.115,0,0.225-0.049,0.303-0.134l25.711-27.961
		c0.146-0.158,0.146-0.4,0-0.558L78.572,24.059C78.494,23.974,78.385,23.926,78.27,23.926z"/>
	</g>
	
	

	


	
</svg>
