<svg xmlns="http://www.w3.org/2000/svg" width="89" height="21" viewBox="0 0 89 21">
  <path fill="#FFF" d="M31.4901961,5.62745098 C32.9803922,5.62745098 34.3529412,6.07843137 35.4901961,6.8627451 L35.4901961,6.8627451 L35.4901961,6 L39.5098039,6 L39.5098039,19.4509804 L35.4901961,19.4509804 L35.4901961,18.5882353 C34.3529412,19.372549 32.9803922,19.8235294 31.4901961,19.8235294 C27.5686275,19.8235294 24.3921569,16.6470588 24.3921569,12.7254902 C24.3921569,8.80392157 27.5686275,5.62745098 31.4901961,5.62745098 Z M73.9607843,5.62745098 C75.4509804,5.62745098 76.8235294,6.07843137 77.9607843,6.8627451 L77.9607843,6.8627451 L77.9607843,6 L81.9803922,6 L81.9803922,19.4509804 L77.9607843,19.4509804 L77.9607843,18.5882353 C76.8235294,19.372549 75.4509804,19.8235294 73.9607843,19.8235294 C70.0392157,19.8235294 66.8627451,16.6470588 66.8627451,12.7254902 C66.8627451,8.80392157 70.0392157,5.62745098 73.9607843,5.62745098 Z M86.2745098,14.6862745 C87.6666667,14.6862745 88.8039216,15.8039216 88.8039216,17.2156863 C88.8039216,18.6078431 87.6666667,19.745098 86.2745098,19.745098 C84.8823529,19.745098 83.745098,18.6078431 83.745098,17.2156863 C83.745098,15.8235294 84.8823529,14.6862745 86.2745098,14.6862745 Z M59.7254902,5.62745098 C62.9607843,5.62745098 65.4509804,7.76470588 65.4509804,10.9019608 L65.4509804,10.9019608 L65.4509804,19.4705882 L61.4313725,19.4705882 L61.4313725,12.372549 C61.4313725,10.4117647 60.4117647,9.35294118 58.6470588,9.35294118 C57,9.35294118 55.627451,10.3529412 55.627451,12.3921569 L55.627451,12.3921569 L55.627451,19.4509804 L51.5686275,19.4509804 L51.5686275,6 L55.5686275,6 L55.5686275,7.50980392 C56.5882353,6.11764706 58.1176471,5.62745098 59.7254902,5.62745098 Z M15.627451,9.13047415e-13 C15.627451,4.21568627 13.9803922,8.1372549 11.0588235,11.0392157 L11.0588235,11.0392157 L17.2352941,19.4509804 L11.7254902,19.4509804 L5.01960784,10.3137255 L6.74509804,9.01960784 C9.60784314,6.8627451 11.254902,3.58823529 11.254902,9.13047415e-13 L11.254902,9.13047415e-13 Z M4.47058824,9.13047415e-13 L4.47058824,19.4509804 L4.72510919e-13,19.4509804 L4.72510919e-13,9.13047415e-13 L4.47058824,9.13047415e-13 Z M22.745098,9.13047415e-13 L22.745098,19.4509804 L18.5294118,19.4509804 L18.5294118,9.13047415e-13 L22.745098,9.13047415e-13 Z M45.745098,6 L45.745098,7.74509804 C46.5490196,6.70588235 48.0588235,6 49.6862745,6 L49.6862745,6 L49.6862745,9.92156863 L49.6862745,9.92156863 L49.6470588,9.92156863 C48.0588235,9.92156863 45.7647059,11.0588235 45.7647059,13.1764706 L45.7647059,13.1764706 L45.7647059,19.4509804 L41.627451,19.4509804 L41.627451,6 L45.745098,6 Z M31.8235294,9.2745098 C29.8039216,9.2745098 28.1764706,10.8235294 28.1764706,12.7254902 C28.1764706,14.627451 29.8039216,16.1764706 31.8235294,16.1764706 C33.8431373,16.1764706 35.4705882,14.627451 35.4705882,12.7254902 C35.4705882,10.8235294 33.8431373,9.2745098 31.8235294,9.2745098 Z M74.2941176,9.2745098 C72.2745098,9.2745098 70.6470588,10.8235294 70.6470588,12.7254902 C70.6470588,14.627451 72.2745098,16.1764706 74.2941176,16.1764706 C76.3137255,16.1764706 77.9607843,14.627451 77.9411765,12.7254902 C77.9411765,10.8235294 76.3137255,9.2745098 74.2941176,9.2745098 Z M84.6862745,5.64705882 C85.2156863,5.64705882 85.6470588,6.07843137 85.6470588,6.60784314 C85.6470588,7.1372549 85.2156863,7.56862745 84.6862745,7.56862745 C84.1568627,7.56862745 83.745098,7.1372549 83.7254902,6.60784314 C83.7254902,6.07843137 84.1568627,5.64705882 84.6862745,5.64705882 Z M84.6862745,5.82352941 C84.2745098,5.82352941 83.9215686,6.17647059 83.9215686,6.60784314 C83.9215686,7.03921569 84.254902,7.39215686 84.6862745,7.39215686 C84.9063399,7.39215686 85.1096034,7.29134597 85.251167,7.13162916 L85.1406856,7.13106295 L84.9130896,6.74644757 L84.6285945,6.74644757 L84.6285945,7.13106295 L84.372549,7.13106295 L84.372549,6.07843137 L84.9130896,6.07843137 C85.114321,6.07843137 85.268499,6.12865191 85.3529311,6.21832862 C85.2218841,5.98298846 84.9762264,5.82352941 84.6862745,5.82352941 Z M84.9130896,6.24037469 L84.6285945,6.24037469 L84.6285945,6.56426133 L84.9130896,6.56426133 C85.1122361,6.56426133 85.1691351,6.50353259 85.1691351,6.40231801 C85.1691351,6.30110344 85.0837866,6.24037469 84.9130896,6.24037469 Z" transform="translate(0 .036)"/>
</svg>
