<svg xmlns="http://www.w3.org/2000/svg" width="35" height="28" viewBox="0 0 35 28">
  <g fill="#FFF" transform="translate(0 .036)">
    <path d="M1.57260885,-2.77555756e-17 L1.57260885,0.68625 L1.43760885,0.68625 L1.28138243,0.214875 L1.12600507,0.68625 L0.990156017,0.68625 L0.990156017,-2.77555756e-17 L1.08609941,-2.77555756e-17 L1.08609941,0.5175 L1.23213715,0.070875 L1.33147677,0.070875 L1.47751451,0.518625 L1.47751451,-2.77555756e-17 L1.57260885,-2.77555756e-17 Z M0.715910734,1.66533454e-16 L0.715910734,0.56925 L0.889118282,0.56925 L0.889118282,0.685125 L0.447608848,0.685125 L0.447608848,0.56925 L0.620816395,0.56925 L0.620816395,1.66533454e-16 L0.715910734,1.66533454e-16 Z" transform="matrix(1 0 0 -1 32.625 17.696)"/>
    <path d="M13.2624844,10.6099875 C13.2624844,13.9368817 14.8201632,16.9003838 17.2458716,18.8101816 C15.4720143,20.2067212 13.2333069,21.0402683 10.8003042,21.0402683 C5.04040719,21.0402683 0.371349563,16.3705476 0.371349563,10.6099875 C0.371349563,4.84942741 5.04040719,0.179706663 10.8003042,0.179706663 C13.2333069,0.179706663 15.4720143,1.01325381 17.2458716,2.40979341 C14.8201632,4.31959116 13.2624844,7.28309329 13.2624844,10.6099875" transform="matrix(1 0 0 -1 .158 21.383)"/>
    <path d="M17.2412297,10.6099875 C17.2412297,4.84942741 12.5721721,0.179706663 6.8122751,0.179706663 C4.37927234,0.179706663 2.14056498,1.01325381 0.366044569,2.40979341 C2.79241609,4.31959116 4.35009488,7.28309329 4.35009488,10.6099875 C4.35009488,13.9368817 2.79241609,16.9003838 0.366044569,18.8101816 C2.14056498,20.2067212 4.37927234,21.0402683 6.8122751,21.0402683 C12.5721721,21.0402683 17.2412297,16.3705476 17.2412297,10.6099875" transform="matrix(1 0 0 -1 17.028 21.383)"/>
    <path d="M19.2306023,3.31562109 C19.3519541,3.31562109 19.5263557,3.29241175 19.6596437,3.24002493 L19.4739689,2.6723906 C19.3466491,2.72477741 19.2193292,2.74201864 19.0973144,2.74201864 C18.7034186,2.74201864 18.5064707,2.48737894 18.5064707,2.02982323 L18.5064707,0.476786313 L17.9036908,0.476786313 L17.9036908,3.24599305 L18.5005026,3.24599305 L18.5005026,2.90978907 C18.6569999,3.15315566 18.8831253,3.31562109 19.2306023,3.31562109 M17.0038312,2.69559995 L16.0190918,2.69559995 L16.0190918,1.44428455 C16.0190918,1.1664355 16.1172341,0.98076072 16.4189557,0.98076072 C16.575453,0.98076072 16.7724009,1.03314753 16.9514444,1.13725804 L17.1251829,0.622010517 C16.9342032,0.488722549 16.6331448,0.40715827 16.372537,0.40715827 C15.6596784,0.40715827 15.4110068,0.789780945 15.4110068,1.43301144 L15.4110068,2.69559995 L14.8486775,2.69559995 L14.8486775,3.24599305 L15.4110068,3.24599305 L15.4110068,4.08617144 L16.0190918,4.08617144 L16.0190918,3.24599305 L17.0038312,3.24599305 L17.0038312,2.69559995 Z M9.29235968,2.10475627 C9.35668273,2.50462017 9.59938619,2.77716423 10.0284276,2.77716423 C10.4163552,2.77716423 10.6656899,2.53379764 10.7293499,2.10475627 L9.29235968,2.10475627 Z M11.3553391,1.86138968 C11.349371,2.72477741 10.8162191,3.31562109 10.0397007,3.31562109 C9.22869975,3.31562109 8.66106542,2.72477741 8.66106542,1.86138968 C8.66106542,0.981423844 9.2519091,0.407821395 10.0808144,0.407821395 C10.4979195,0.407821395 10.8798791,0.511931897 11.216083,0.795749063 L10.9203296,1.24203166 C10.6888993,1.05635688 10.3931459,0.952246378 10.1152968,0.952246378 C9.72736916,0.952246378 9.37392396,1.13195304 9.28705468,1.62995933 L11.3434029,1.62995933 C11.349371,1.70555549 11.3553391,1.78048853 11.3553391,1.86138968 M14.002531,2.53910263 C13.8347606,2.64387626 13.4932516,2.77716423 13.1398064,2.77716423 C12.8095705,2.77716423 12.6126226,2.65514937 12.6126226,2.45223336 C12.6126226,2.2672217 12.8208436,2.21483489 13.0814515,2.18035243 L13.3652686,2.13990185 C13.9680485,2.05236946 14.3327669,1.79772976 14.3327669,1.31099658 C14.3327669,0.783812827 13.869243,0.40715827 13.0701784,0.40715827 C12.6179276,0.40715827 12.2008225,0.523205009 11.8705866,0.766571597 L12.1544038,1.23606354 C12.3573198,1.07956623 12.6590413,0.94627826 13.0761465,0.94627826 C13.4872835,0.94627826 13.7074407,1.06762999 13.7074407,1.28248224 C13.7074407,1.43831643 13.5509434,1.52584883 13.2207075,1.5716044 L12.9368904,1.61205498 C12.3168692,1.69958737 11.9806653,1.97743642 11.9806653,2.42902401 C11.9806653,2.97941711 12.432916,3.31562109 13.1338383,3.31562109 C13.5741528,3.31562109 13.9740167,3.21681559 14.2631388,3.02583581 L14.002531,2.53910263 Z M21.4328379,2.74334489 C21.3088336,2.74334489 21.1941132,2.72146179 21.0873502,2.67835872 C20.9812503,2.63459252 20.889076,2.57358509 20.8114905,2.49533644 C20.7339049,2.41708778 20.6728975,2.32292414 20.6284682,2.21350864 C20.5840389,2.10409315 20.5621558,1.98340454 20.5621558,1.85210594 C20.5621558,1.72014422 20.5840389,1.60011874 20.6284682,1.49070324 C20.6728975,1.38128775 20.7339049,1.28712411 20.8114905,1.20887545 C20.889076,1.13062679 20.9812503,1.06961936 21.0873502,1.02585317 C21.1941132,0.982086968 21.3088336,0.960866993 21.4328379,0.960866993 C21.5568421,0.960866993 21.6722257,0.982086968 21.7783256,1.02585317 C21.8850886,1.06961936 21.977926,1.13062679 22.0555115,1.20887545 C22.1344233,1.28712411 22.1954307,1.38128775 22.2405232,1.49070324 C22.2849525,1.60011874 22.3068356,1.72014422 22.3068356,1.85210594 C22.3068356,1.98340454 22.2849525,2.10409315 22.2405232,2.21350864 C22.1954307,2.32292414 22.1344233,2.41708778 22.0555115,2.49533644 C21.977926,2.57358509 21.8850886,2.63459252 21.7783256,2.67835872 C21.6722257,2.72146179 21.5568421,2.74334489 21.4328379,2.74334489 M21.4328379,3.31562109 C21.6476901,3.31562109 21.8466274,3.27848614 22.0296497,3.2035531 C22.212672,3.12928319 22.3711586,3.02649893 22.5044466,2.89586346 C22.6383977,2.76522799 22.7425082,2.61072005 22.8181044,2.43300276 C22.8937005,2.25462234 22.9314986,2.06099007 22.9314986,1.85210594 C22.9314986,1.64322181 22.8937005,1.44958954 22.8181044,1.27120913 C22.7425082,1.09349184 22.6383977,0.93832077 22.5044466,0.807685298 C22.3711586,0.677049827 22.212672,0.574928698 22.0296497,0.499995661 C21.8466274,0.425725748 21.6476901,0.388590792 21.4328379,0.388590792 C21.2179856,0.388590792 21.0190484,0.425725748 20.8360261,0.499995661 C20.6530038,0.574928698 20.4958434,0.677049827 20.3632185,0.807685298 C20.2305937,0.93832077 20.1264832,1.09349184 20.050887,1.27120913 C19.9752908,1.44958954 19.9374928,1.64322181 19.9374928,1.85210594 C19.9374928,2.06099007 19.9752908,2.25462234 20.050887,2.43300276 C20.1264832,2.61072005 20.2305937,2.76522799 20.3632185,2.89586346 C20.4958434,3.02649893 20.6530038,3.12928319 20.8360261,3.2035531 C21.0190484,3.27848614 21.2179856,3.31562109 21.4328379,3.31562109 M5.77249632,1.86138968 C5.77249632,2.34812286 6.09145907,2.74798676 6.61267471,2.74798676 C7.110681,2.74798676 7.44688498,2.36536409 7.44688498,1.86138968 C7.44688498,1.35741528 7.110681,0.975455726 6.61267471,0.975455726 C6.09145907,0.975455726 5.77249632,1.37465651 5.77249632,1.86138968 M8.01451931,1.86138968 L8.01451931,3.24599305 L7.41240252,3.24599305 L7.41240252,2.90978907 C7.22075962,3.15912378 6.93163746,3.31562109 6.53774167,3.31562109 C5.76122321,3.31562109 5.1531383,2.70753619 5.1531383,1.86138968 C5.1531383,1.0159063 5.76122321,0.40715827 6.53774167,0.40715827 C6.93163746,0.40715827 7.22075962,0.563655586 7.41240252,0.812990292 L7.41240252,0.476786313 L8.01451931,0.476786313 L8.01451931,1.86138968 Z M4.61998643,0.476786313 L4.61998643,2.21483489 C4.61998643,2.86933849 4.2028813,3.30965298 3.53113646,3.31562109 C3.17769126,3.32158921 2.81230981,3.21151059 2.55767011,2.8229198 C2.36669034,3.12994631 2.06496882,3.31562109 1.64189557,3.31562109 C1.34680529,3.31562109 1.05702,3.22875182 0.830894646,2.90448408 L0.830894646,3.24599305 L0.228777855,3.24599305 L0.228777855,0.476786313 L0.836862764,0.476786313 L0.836862764,2.01191888 C0.836862764,2.49268394 1.1034387,2.74798676 1.51457572,2.74798676 C1.91443962,2.74798676 2.11735563,2.48737894 2.11735563,2.017887 L2.11735563,0.476786313 L2.72544054,0.476786313 L2.72544054,2.01191888 C2.72544054,2.49268394 3.00395271,2.74798676 3.40315349,2.74798676 C3.81495363,2.74798676 4.01190152,2.48737894 4.01190152,2.017887 L4.01190152,0.476786313 L4.61998643,0.476786313 Z" transform="matrix(1 0 0 -1 5.808 26.921)"/>
    <path d="M0.826628245,0.911151513 L0.826628245,0.795276513 L0.933503245,0.795276513 C0.957128245,0.795276513 0.977378245,0.800901513 0.990878245,0.809901513 C1.00550325,0.818901513 1.01337825,0.834651513 1.01337825,0.853776513 C1.01337825,0.872901513 1.00550325,0.887526513 0.990878245,0.896526513 C0.977378245,0.906651513 0.957128245,0.911151513 0.933503245,0.911151513 L0.826628245,0.911151513 Z M0.934628245,0.992151513 C0.989753245,0.992151513 1.03250325,0.979776513 1.06287825,0.955026513 C1.09325325,0.930276513 1.10787825,0.896526513 1.10787825,0.853776513 C1.10787825,0.817776513 1.09662825,0.788526513 1.07187825,0.764901513 C1.04825325,0.742401513 1.01337825,0.727776513 0.969503245,0.722151513 L1.11125325,0.559026513 L1.00100325,0.559026513 L0.869378245,0.721026513 L0.826628245,0.721026513 L0.826628245,0.559026513 L0.734378245,0.559026513 L0.734378245,0.992151513 L0.934628245,0.992151513 Z M0.906503245,0.410526513 C0.957128245,0.410526513 1.00437825,0.419526513 1.04712825,0.438651513 C1.09100325,0.457776513 1.12925325,0.483651513 1.16187825,0.516276513 C1.19450325,0.548901513 1.22037825,0.587151513 1.23950325,0.632151513 C1.25750325,0.676026513 1.26762825,0.723276513 1.26762825,0.773901513 C1.26762825,0.824526513 1.25750325,0.871776513 1.23950325,0.915651513 C1.22037825,0.959526513 1.19450325,0.998901513 1.16187825,1.03152651 C1.12925325,1.06415151 1.09100325,1.09002651 1.04712825,1.10802651 C1.00437825,1.12715151 0.957128245,1.13615151 0.906503245,1.13615151 C0.855878245,1.13615151 0.807503245,1.12715151 0.763628245,1.10802651 C0.718628245,1.09002651 0.679253245,1.06415151 0.646628245,1.03152651 C0.614003245,0.998901513 0.588128245,0.959526513 0.570128245,0.915651513 C0.551003245,0.871776513 0.542003245,0.824526513 0.542003245,0.773901513 C0.542003245,0.723276513 0.551003245,0.676026513 0.570128245,0.632151513 C0.588128245,0.587151513 0.614003245,0.548901513 0.646628245,0.516276513 C0.679253245,0.483651513 0.718628245,0.457776513 0.763628245,0.438651513 C0.807503245,0.419526513 0.855878245,0.410526513 0.906503245,0.410526513 M0.906503245,1.24077651 C0.972878245,1.24077651 1.03362825,1.22840151 1.09100325,1.20365151 C1.14950325,1.18002651 1.19900325,1.14627651 1.24287825,1.10352651 C1.28562825,1.06190151 1.31937825,1.01240151 1.34412825,0.955026513 C1.36887825,0.898776513 1.38125325,0.838026513 1.38125325,0.773901513 C1.38125325,0.709776513 1.36887825,0.649026513 1.34412825,0.592776513 C1.31937825,0.536526513 1.28562825,0.487026513 1.24287825,0.445401513 C1.19900325,0.402651513 1.14950325,0.368901513 1.09100325,0.344151513 C1.03362825,0.319401513 0.972878245,0.307026513 0.906503245,0.307026513 C0.839003245,0.307026513 0.777128245,0.319401513 0.718628245,0.344151513 C0.660128245,0.368901513 0.609503245,0.402651513 0.566753245,0.445401513 C0.524003245,0.487026513 0.490253245,0.536526513 0.465503245,0.592776513 C0.440753245,0.649026513 0.428378245,0.709776513 0.428378245,0.773901513 C0.428378245,0.838026513 0.440753245,0.898776513 0.465503245,0.955026513 C0.490253245,1.01240151 0.524003245,1.06190151 0.566753245,1.10352651 C0.609503245,1.14627651 0.660128245,1.18002651 0.718628245,1.20365151 C0.777128245,1.22840151 0.839003245,1.24077651 0.906503245,1.24077651" transform="matrix(1 0 0 -1 28.726 26.9)"/>
  </g>
</svg>
