<svg xmlns="http://www.w3.org/2000/svg" width="35" height="28" viewBox="0 0 35 28">
  <path fill="#FFF" fill-rule="evenodd" d="M95.3557169,2.29725107 C95.2174647,2.4060055 95.0821921,2.51803745 94.949899,2.63334694 C92.6895947,4.59986537 91.2588035,7.49511681 91.2588035,10.7264641 C91.2588035,13.9578114 92.6895947,16.8527649 94.949899,18.8195813 C95.0821921,18.9348908 95.2174647,19.0466248 95.3557169,19.1553792 C95.4939691,19.0466248 95.6292418,18.9348908 95.7615348,18.8195813 C98.0221371,16.8527649 99.4526303,13.9578114 99.4526303,10.7264641 C99.4526303,7.49511681 98.0221371,4.59986537 95.7615348,2.63334694 C95.6292418,2.51803745 95.4939691,2.4060055 95.3557169,2.29725107 L95.3557169,2.29725107 Z M101.98497,0 C99.7890241,0 97.7474205,0.660273459 96.0469779,1.7928093 C96.1339815,1.8640211 96.2221769,1.93404107 96.3062008,2.00733858 C98.833475,4.20596577 100.282441,7.38397872 100.282441,10.7264641 C100.282441,14.0689495 98.833475,17.2469625 96.3064988,19.4452917 C96.2227728,19.5182913 96.1339815,19.5889072 96.0469779,19.660119 C97.7471225,20.7923568 99.7890241,21.4529283 101.98497,21.4529283 C107.908957,21.4529283 112.711434,16.6504519 112.711434,10.7264641 C112.711434,4.8021784 107.908957,0 101.98497,0 Z M94.405233,19.4452917 C94.488959,19.5182913 94.5774524,19.5886092 94.6644559,19.660119 C92.9643113,20.7926548 90.9227077,21.4529283 88.7264641,21.4529283 C82.8021784,21.4529283 78,16.6504519 78,10.7264641 C78,4.80247636 82.8021784,0 88.7264641,0 C90.9224097,0 92.9643113,0.660273459 94.6644559,1.7928093 C94.5774524,1.8640211 94.4895549,1.93404107 94.405233,2.00733858 C91.8782568,4.20596577 90.4289924,7.38397872 90.4289924,10.7264641 C90.4289924,14.0692475 91.8782568,17.2469625 94.405233,19.4452917 Z M112.375338,17.3732964 L112.375338,16.956752 L112.266881,16.956752 L112.141739,17.243387 L112.016597,16.956752 L111.907843,16.956752 L111.907843,17.3732964 L111.984716,17.3732964 L111.984716,17.0592494 L112.101813,17.3297946 L112.181368,17.3297946 L112.298763,17.0586535 L112.298763,17.3732964 L112.375338,17.3732964 Z M111.687057,17.3732964 L111.687057,17.0279638 L111.826203,17.0279638 L111.826203,16.9576459 L111.471633,16.9576459 L111.471633,17.0279638 L111.610779,17.0279638 L111.610779,17.3732964 L111.687057,17.3732964 Z M112.022259,26.6338104 L112.022259,26.7038304 L112.086617,26.7038304 C112.101515,26.7038304 112.113433,26.7008508 112.122074,26.6951896 C112.131013,26.6895285 112.135184,26.6805897 112.135184,26.6683735 C112.135184,26.6567531 112.131013,26.6481124 112.122074,26.6424512 C112.113433,26.63679 112.101515,26.6338104 112.086617,26.6338104 L112.022259,26.6338104 Z M112.087511,26.5846475 C112.12118,26.5846475 112.147103,26.5920964 112.165576,26.6069943 C112.183751,26.6221901 112.192988,26.6424512 112.192988,26.6683735 C112.192988,26.6901244 112.185539,26.7082998 112.170939,26.7223038 C112.156339,26.7363078 112.13578,26.7449485 112.108964,26.7482261 L112.195074,26.8474458 L112.127735,26.8474458 L112.047883,26.748822 L112.022259,26.748822 L112.022259,26.8474458 L111.965945,26.8474458 L111.965945,26.5846475 L112.087511,26.5846475 Z M112.070826,26.9377269 C112.101217,26.9377269 112.129821,26.9317678 112.156041,26.9204454 C112.18256,26.9088251 112.205502,26.8930333 112.225465,26.8730702 C112.245429,26.853405 112.260922,26.8298664 112.272245,26.8030502 C112.283567,26.776234 112.289228,26.7476301 112.289228,26.7169405 C112.289228,26.6865489 112.283567,26.657945 112.272245,26.6311288 C112.260922,26.6043127 112.245429,26.580774 112.225465,26.5608109 C112.205502,26.5411457 112.18256,26.525354 112.156041,26.5140316 C112.129821,26.5027092 112.101217,26.497048 112.070826,26.497048 C112.039838,26.497048 112.010638,26.5027092 111.983822,26.5140316 C111.956708,26.525354 111.933169,26.5411457 111.913206,26.5608109 C111.893541,26.580774 111.877749,26.6043127 111.866427,26.6311288 C111.855104,26.657945 111.849443,26.6865489 111.849443,26.7169405 C111.849443,26.7476301 111.855104,26.776234 111.866427,26.8030502 C111.877749,26.8298664 111.893541,26.853405 111.913206,26.8730702 C111.933169,26.8930333 111.956708,26.9088251 111.983822,26.9204454 C112.010638,26.9317678 112.039838,26.9377269 112.070826,26.9377269 Z M112.070826,26.4338811 C112.110454,26.4338811 112.147997,26.44133 112.182858,26.4562279 C112.217719,26.4708278 112.248408,26.4910889 112.27433,26.5170112 C112.300551,26.5426355 112.32111,26.5727292 112.336306,26.6069943 C112.351203,26.6415573 112.358652,26.6782061 112.358652,26.7169405 C112.358652,26.7559729 112.351203,26.7923237 112.336306,26.8265888 C112.32111,26.8608539 112.300551,26.8909476 112.27433,26.9165719 C112.248408,26.9421963 112.217719,26.9624574 112.182858,26.9776532 C112.147997,26.9925511 112.110454,27 112.070826,27 C112.030005,27 111.992165,26.9925511 111.956708,26.9776532 C111.921251,26.9624574 111.890561,26.9421963 111.864639,26.9165719 C111.838717,26.8909476 111.818456,26.8608539 111.80326,26.8265888 C111.788362,26.7923237 111.780913,26.7559729 111.780913,26.7169405 C111.780913,26.6782061 111.788362,26.6415573 111.80326,26.6069943 C111.818456,26.5727292 111.838717,26.5426355 111.864639,26.5170112 C111.890561,26.4910889 111.921251,26.4708278 111.956708,26.4562279 C111.992165,26.44133 112.030005,26.4338811 112.070826,26.4338811 Z M85.50048,25.4226139 C85.50048,24.9220455 85.8282331,24.5111624 86.3642584,24.5111624 C86.876745,24.5111624 87.2223755,24.9041681 87.2223755,25.4226139 C87.2223755,25.9410596 86.876745,26.3343633 86.3642584,26.3343633 C85.8282331,26.3343633 85.50048,25.9231822 85.50048,25.4226139 Z M87.8063719,25.4226139 L87.8063719,23.9986757 L87.1866206,23.9986757 L87.1866206,24.3443063 C86.9899688,24.0880629 86.6920114,23.927166 86.2867895,23.927166 C85.4885617,23.927166 84.8628513,24.5528764 84.8628513,25.4226139 C84.8628513,26.2926493 85.4885617,26.9183597 86.2867895,26.9183597 C86.6920114,26.9183597 86.9899688,26.7574627 87.1866206,26.5012194 L87.1866206,26.8468499 L87.8063719,26.8468499 L87.8063719,25.4226139 Z M108.731916,25.4226139 C108.731916,24.9220455 109.059669,24.5111624 109.595992,24.5111624 C110.108181,24.5111624 110.453811,24.9041681 110.453811,25.4226139 C110.453811,25.9410596 110.108181,26.3343633 109.595992,26.3343633 C109.059669,26.3343633 108.731916,25.9231822 108.731916,25.4226139 Z M111.037807,25.4226139 L111.037807,22.8545196 L110.418056,22.8545196 L110.418056,24.3443063 C110.221404,24.0880629 109.923447,23.927166 109.518523,23.927166 C108.719997,23.927166 108.094287,24.5528764 108.094287,25.4226139 C108.094287,26.2926493 108.719997,26.9183597 109.518523,26.9183597 C109.923447,26.9183597 110.221404,26.7574627 110.418056,26.5012194 L110.418056,26.8468499 L111.037807,26.8468499 L111.037807,25.4226139 Z M95.4924793,24.4813666 C95.8917422,24.4813666 96.1479855,24.7313528 96.2135361,25.1723297 L94.7359657,25.1723297 C94.8012183,24.7611486 95.0515025,24.4813666 95.4924793,24.4813666 Z M95.5043976,23.927166 C94.6701171,23.927166 94.0864187,24.534999 94.0864187,25.4226139 C94.0864187,26.3284042 94.6939537,26.9183597 95.5461117,26.9183597 C95.9751702,26.9183597 96.3684739,26.8107971 96.7141044,26.5190969 L96.4101879,26.0602426 C96.1718221,26.2509353 95.8679056,26.3581999 95.5818665,26.3581999 C95.1826037,26.3581999 94.8190958,26.1734663 94.7297086,25.6609797 L96.8452056,25.6609797 C96.8511648,25.5835108 96.856826,25.5060419 96.856826,25.4226139 C96.8511648,24.534999 96.3029233,23.927166 95.5043976,23.927166 Z M102.982233,25.4226139 C102.982233,24.9220455 103.309688,24.5111624 103.846011,24.5111624 C104.358498,24.5111624 104.704128,24.9041681 104.704128,25.4226139 C104.704128,25.9410596 104.358498,26.3343633 103.846011,26.3343633 C103.309688,26.3343633 102.982233,25.9231822 102.982233,25.4226139 Z M105.288125,25.4226139 L105.288125,23.9986757 L104.668373,23.9986757 L104.668373,24.3443063 C104.471722,24.0880629 104.173764,23.927166 103.768542,23.927166 C102.970315,23.927166 102.344604,24.5528764 102.344604,25.4226139 C102.344604,26.2926493 102.970315,26.9183597 103.768542,26.9183597 C104.173764,26.9183597 104.471722,26.7574627 104.668373,26.5012194 L104.668373,26.8468499 L105.288125,26.8468499 L105.288125,25.4226139 Z M99.4845117,25.4226139 C99.4845117,26.2866901 100.086386,26.9183597 101.004094,26.9183597 C101.433153,26.9183597 101.718894,26.8230133 102.028769,26.5786883 L101.730812,26.07812 C101.498405,26.2449761 101.25408,26.3343633 100.986217,26.3343633 C100.491608,26.3284042 100.1281,25.9708554 100.1281,25.4226139 C100.1281,24.8746703 100.491608,24.5171215 100.986217,24.5111624 C101.25408,24.5111624 101.498405,24.6002516 101.730812,24.7674057 L102.028769,24.2668373 C101.718894,24.0225123 101.433153,23.927166 101.004094,23.927166 C100.086386,23.927166 99.4845117,24.5588355 99.4845117,25.4226139 Z M107.468874,23.927166 C107.111326,23.927166 106.878919,24.0940221 106.718022,24.3443063 L106.718022,23.9986757 L106.10423,23.9986757 L106.10423,26.8468499 L106.723981,26.8468499 L106.723981,25.2497986 C106.723981,24.779324 106.926592,24.5171215 107.331814,24.5171215 C107.456956,24.5171215 107.588057,24.534999 107.719159,24.5886313 L107.909851,24.0046349 C107.772493,23.9510026 107.593719,23.927166 107.468874,23.927166 Z M90.8687774,24.2251233 C90.57082,24.0284715 90.1596389,23.927166 89.7070417,23.927166 C88.985985,23.927166 88.5211715,24.2727965 88.5211715,24.8386175 C88.5211715,25.3034309 88.866802,25.58947 89.5044307,25.6788572 L89.7964289,25.7205712 C90.1358023,25.7682444 90.2969973,25.8576316 90.2969973,26.0185285 C90.2969973,26.239017 90.0702517,26.364159 89.6474503,26.364159 C89.2183917,26.364159 88.9085161,26.2270987 88.6999459,26.0662017 L88.4079477,26.5488926 C88.7476191,26.7988788 89.1766777,26.9183597 89.6414911,26.9183597 C90.4635554,26.9183597 90.9402871,26.5310152 90.9402871,25.9887328 C90.9402871,25.4881645 90.5648609,25.225962 89.9454076,25.1365748 L89.6534094,25.0948608 C89.3852478,25.0591059 89.1707185,25.0057715 89.1707185,24.8150788 C89.1707185,24.6065087 89.3733295,24.4813666 89.7130009,24.4813666 C90.0765088,24.4813666 90.4278005,24.618427 90.6006158,24.7256916 L90.8687774,24.2251233 Z M98.8590993,23.927166 C98.5015505,23.927166 98.2691438,24.0940221 98.1082468,24.3443063 L98.1082468,23.9986757 L97.4944547,23.9986757 L97.4944547,26.8468499 L98.1142059,26.8468499 L98.1142059,25.2497986 C98.1142059,24.779324 98.3168169,24.5171215 98.7220389,24.5171215 C98.847181,24.5171215 98.9782822,24.534999 99.1090855,24.5886313 L99.2997782,24.0046349 C99.1627178,23.9510026 98.9839434,23.927166 98.8590993,23.927166 Z M93.573932,23.9986757 L92.5608771,23.9986757 L92.5608771,23.1345995 L91.9354646,23.1345995 L91.9354646,23.9986757 L91.3574274,23.9986757 L91.3574274,24.5647947 L91.9354646,24.5647947 L91.9354646,25.8635907 C91.9354646,26.525056 92.191708,26.9183597 92.924385,26.9183597 C93.1925467,26.9183597 93.5024223,26.8346337 93.6990741,26.6978713 L93.5202997,26.1675072 C93.3355662,26.2747718 93.1329552,26.3284042 92.9720582,26.3284042 C92.6621826,26.3284042 92.5608771,26.1377115 92.5608771,25.8516724 L92.5608771,24.5647947 L93.573932,24.5647947 L93.573932,23.9986757 Z M84.3146098,26.8468499 L84.3146098,25.0591059 C84.3146098,24.3860203 83.8855513,23.9331251 83.1945882,23.927166 C82.8310803,23.9212068 82.455654,24.0344306 82.1934516,24.4336935 C81.9967997,24.1178587 81.6869241,23.927166 81.2522043,23.927166 C80.9482878,23.927166 80.6503305,24.0165532 80.4179238,24.3502654 L80.4179238,23.9986757 L79.7981725,23.9986757 L79.7981725,26.8468499 L80.4238829,26.8468499 L80.4238829,25.267676 C80.4238829,24.7730669 80.6980037,24.5111624 81.1211031,24.5111624 C81.5319863,24.5111624 81.7405564,24.779324 81.7405564,25.2617169 L81.7405564,26.8468499 L82.3662668,26.8468499 L82.3662668,25.267676 C82.3662668,24.7730669 82.6523059,24.5111624 83.063487,24.5111624 C83.4865864,24.5111624 83.6888994,24.779324 83.6888994,25.2617169 L83.6888994,26.8468499 L84.3146098,26.8468499 L84.3146098,26.8468499 Z" transform="translate(-78 .036)"/>
</svg>
