<svg xmlns="http://www.w3.org/2000/svg" width="75" height="23" viewBox="0 0 75 23">
  <path fill="#FFF" d="M8.94193149 19.8558504L3.14604884 19.8558504C2.74936681 19.8558504 2.41209691 19.5676309 2.35020928 19.1759706L.00607824939 4.31376232C-.0405447084 4.02062714.186630106 3.75615478.484049679 3.75615478L3.25109867 3.75615478C3.64770997 3.75615478 3.98497987 4.04425054 4.0468675 4.43663579L4.67907616 8.44516833C4.74013273 8.83764199 5.0782337 9.12580848 5.47401393 9.12580848L7.30882303 9.12580848C11.126724 9.12580848 13.3301535 10.9733134 13.9056554 14.6344264 14.1649469 16.2361844 13.916636 17.4946605 13.1665933 18.3760288 12.3428513 19.3439513 10.8817904 19.8558504 8.94193149 19.8558504L8.94193149 19.8558504zM9.61061849 14.4276157C9.29364773 12.3478907 7.70460326 12.3478907 6.16811023 12.3478907L5.29353192 12.3478907 5.90708588 16.2318876C5.94356422 16.4666716 6.14690929 16.6395503 6.38423951 16.6395503L6.78505917 16.6395503C7.83168509 16.6395503 8.81905802 16.6395503 9.3292066 16.0429889 9.63348155 15.6869936 9.72671969 15.1581903 9.61061849 14.4276157M26.2668784 14.4945604L23.4914835 14.4945604C23.2550727 14.4945604 23.0508435 14.321664 23.0142414 14.0868977L22.8915271 13.3106147 22.6973768 13.5920089C22.0965363 14.464094 20.7565807 14.7555671 19.4192774 14.7555671 16.3522856 14.7555671 13.732706 12.4326414 13.2225397 9.17408083 12.957307 7.54862875 13.3344326 5.99432976 14.2564698 4.91046517 15.1022439 3.91384446 16.31243 3.49857846 17.7523783 3.49857846 20.2236398 3.49857846 21.5940087 5.08749916 21.5940087 5.08749916L21.4702335 4.31630856C21.4235525 4.02138748 21.6507685 3.75698584 21.9465914 3.75698584L24.446498 3.75698584C24.8439934 3.75698584 25.1796012 4.04515233 25.2423729 4.43746686L26.7423523 13.9369352C26.7899173 14.2293277 26.5635854 14.4945604 26.2668784 14.4945604L26.2668784 14.4945604zM22.3981943 9.09270744C22.1304861 7.50712867 20.8718685 6.44259071 19.266857 6.44259071 18.4609032 6.44259071 17.8167414 6.70113954 17.4031376 7.19098898 16.9929817 7.67744343 16.8370249 8.36982456 16.9675724 9.1410682 17.2175454 10.7131201 18.4973285 11.8122444 20.0777618 11.8122444 20.8660334 11.8122444 21.5066588 11.5504067 21.9287324 11.0564019 22.3516901 10.557234 22.5193172 9.86057379 22.3981943 9.09270744M41.0486505 14.4945604L38.2596402 14.4945604C37.9935234 14.4945604 37.7434974 14.3623507 37.5926684 14.1411113L33.7459101 8.47487439 32.1154363 13.9199426C32.0128797 14.2606782 31.6984905 14.4945604 31.3425482 14.4945604L28.6018103 14.4945604C28.268678 14.4945604 28.0373951 14.1691552 28.1433114 13.8555795L31.2154133 4.84009009 28.3272061.762819856C28.09999.441709698 28.3287975 0 28.7213419 0L31.5069925 0C31.7713411 0 32.0188916.128886471 32.1688365.345838686L41.4452618 13.7360126C41.66735 14.0564313 41.4394267 14.4945604 41.0486505 14.4945604M50.2828154 19.8558504L44.4860663 19.8558504C44.0903391 19.8558504 43.7529631 19.5676309 43.6910755 19.1759706L41.3469489 4.31376232C41.3004447 4.02062714 41.5274839 3.75615478 41.8233068 3.75615478L44.7979799 3.75615478C45.0741756 3.75615478 45.3107632 3.95776699 45.3539077 4.23238893L46.0191113 8.44516833C46.0801148 8.83764199 46.4183749 9.12580848 46.8141021 9.12580848L48.6480978 9.12580848C52.4667414 9.12580848 54.6694106 10.9733134 55.2456728 14.6344264 55.5059545 16.2361844 55.2559285 17.4946605 54.5058504 18.3760288 53.6829218 19.3439513 52.2227273 19.8558504 50.2828154 19.8558504L50.2828154 19.8558504zM50.9515554 14.4276157C50.635398 12.3478907 49.0464773 12.3478907 47.5090118 12.3478907L46.6353353 12.3478907 47.249791 16.2318876C47.2862163 16.4666716 47.4877932 16.6395503 47.7259721 16.6395503L48.1268272 16.6395503C49.1727281 16.6395503 50.1608083 16.6395503 50.6709392 16.0429889 50.9752495 15.6869936 51.0675505 15.1581903 50.9515554 14.4276157M67.6071081 14.4945604L64.8333045 14.4945604C64.5951255 14.4945604 64.3924878 14.321664 64.3569466 14.0868977L64.2340554 13.3106147 64.0391978 13.5920089C63.4383573 14.464094 62.0992858 14.7555671 60.7619825 14.7555671 57.6948316 14.7555671 55.0762776 12.4326414 54.5659698 9.17408083 54.3016212 7.54862875 54.6770139 5.99432976 55.5991396 4.91046517 56.4466465 3.91384446 57.6550467 3.49857846 59.0949066 3.49857846 61.5661681 3.49857846 62.936537 5.08749916 62.936537 5.08749916L62.8127618 4.31630856C62.7662577 4.02138748 62.9932968 3.75698584 63.2908879 3.75698584L65.7900873 3.75698584C66.1858145 3.75698584 66.5231904 4.04515233 66.5850781 4.43746686L68.0859415 13.9369352C68.1315615 14.2293277 67.9045224 14.4945604 67.6071081 14.4945604L67.6071081 14.4945604zM63.7382471 9.09270744C63.4721303 7.50712867 62.2119213 6.44259071 60.6069098 6.44259071 59.8025475 6.44259071 59.1567942 6.70113954 58.7432081 7.19098898 58.3331583 7.67744343 58.1787929 8.36982456 58.307696 9.1410682 58.5593134 10.7131201 59.8373814 11.8122444 61.4179914 11.8122444 62.2060862 11.8122444 62.8467116 11.5504067 63.2687852 11.0564019 63.6933344 10.557234 63.8611382 9.86057379 63.7382471 9.09270744M70.8791955 19.4480994L68.500235 4.31376232C68.4537309 4.02062714 68.6807701 3.75615478 68.9765929 3.75615478L71.3681078 3.75615478C71.7656032 3.75615478 72.1029792 4.04425054 72.1639827 4.43663579L74.5097007 19.2979776C74.5563817 19.591325 74.3293425 19.8565577 74.0335196 19.8565577L71.3553766 19.8565577C71.1189659 19.8558504 70.9156208 19.6827419 70.8791955 19.4480994" transform="matrix(1 0 0 -1 0 21.947)"/>
</svg>
