<svg xmlns="http://www.w3.org/2000/svg" width="62" height="21" viewBox="0 0 62 21">
  <g fill="#FFF" transform="translate(0 .036)">
    <polygon points="26.75 19.69 21.749 19.69 24.877 .351 29.878 .351"/>
    <path d="M44.8779874.823364437C43.8916369.43205103 42.3272037-.0000070993642 40.3927864-.0000070993642 35.4544714-.0000070993642 31.9769504 2.63335985 31.9556209 6.39828158 31.9146027 9.17603252 34.4454242 10.7188629 36.3382764 11.6450533 38.2729671 12.5914794 38.9306252 13.2092131 38.9306252 14.0528203 38.9109364 15.3484478 37.3672857 15.9456724 35.9275477 15.9456724 33.9310563 15.9456724 32.8613023 15.6377626 31.2356152 14.9169365L30.5771367 14.607933 29.8773666 18.9492968C31.050213 19.4836269 33.2110506 19.957797 35.4544714 19.9785796 40.7015166 19.9785796 44.1175104 17.3859573 44.1579816 13.3738327 44.1779438 11.1722505 42.8415716 9.48530957 39.9604549 8.10682537 38.2114398 7.22192657 37.1403185 6.62524883 37.1403185 5.71984094 37.1608276 4.89674285 38.0462733 4.05368259 40.0206148 4.05368259 41.6463019 4.01239096 42.8407512 4.40315746 43.7456122 4.79419741L44.197906 4.99956175 44.8779874.823364437 44.8779874.823364437 44.8779874.823364437zM51.5242993 12.8389557C51.9361218 11.72791 53.5207907 7.42783782 53.5207907 7.42783782 53.5000081 7.46912945 53.9317928 6.29628305 54.1787222 5.57627732L54.5281971 7.24270911C54.5281971 7.24270911 55.4751701 11.8720206 55.6808079 12.8389557 54.8992749 12.8389557 52.512017 12.8389557 51.5242993 12.8389557L51.5242993 12.8389557zM57.696988.350561585L53.8289739.350561585C52.6361653.350561585 51.7299371.700036452 51.2152957 1.95519266L43.7874508 19.6900851 49.0344959 19.6900851C49.0344959 19.6900851 49.8983387 17.3031006 50.0840144 16.7890061 50.6596361 16.7890061 55.763938 16.7890061 56.5044529 16.7890061 56.6480165 17.4679937 57.1011306 19.6900851 57.1011306 19.6900851L61.7312624 19.6900851 57.696988.350561585 57.696988.350561585 57.696988.350561585zM17.5727339.350561585L12.6754371 13.5384524 12.1402866 10.8637938C11.2348787 7.77758614 8.39532704 4.42448691 5.22653615 2.75723475L9.71228397 19.6698494 15.0003473 19.6698494 22.8605238.350561585 17.5727339.350561585 17.5727339.350561585 17.5727339.350561585z"/>
    <path d="M8.12788853,0.350561585 L0.0823098649,0.350561585 L5.66790142e-08,0.741328084 C6.27605457,2.34623262 10.4325632,6.2147936 12.1402866,10.8646141 L10.3912715,1.97624866 C10.1033239,0.741054629 9.21842512,0.391306308 8.12788853,0.350561585 L8.12788853,0.350561585 Z"/>
  </g>
</svg>
